<?xml version="1.0" encoding="UTF-8"?>
<svg version="1.1" xmlns="http://www.w3.org/2000/svg" width="1397" height="478">
<path d="M0 0 C2.85944002 0.00008078 5.71871815 -0.0068017 8.578125 -0.02050781 C34.02691294 -0.14036464 59.34389562 0.79628057 84.62841797 3.93530273 C85.29928436 4.01800415 85.97015076 4.10070557 86.66134644 4.18591309 C123.52733353 8.7962417 167.35572133 18.06370993 191.65185547 48.84936523 C198.33790509 58.22344499 202.98715122 68.8340794 204.94091797 80.18530273 C205.21355469 81.75731445 205.21355469 81.75731445 205.49169922 83.36108398 C213.47871725 151.35491574 183.55889185 225.36588021 146.94091797 281.18530273 C146.25513672 282.24749023 145.56935547 283.30967773 144.86279297 284.40405273 C135.93667358 298.05576474 126.36103648 311.0963424 115.54882812 323.30639648 C113.60074956 325.5828029 111.75247578 327.93119333 109.88623047 330.27514648 C104.87009759 336.42859747 99.38923033 342.04011081 93.7578125 347.62915039 C92.06778555 349.30844701 90.38874033 350.99819242 88.71044922 352.68920898 C82.09879513 359.30933327 75.31150543 365.40778173 67.94091797 371.18530273 C66.82192917 372.08963329 65.70334907 372.99447016 64.58544922 373.90014648 C45.65838297 388.7546302 22.99800964 404.50540382 -2.05908203 402.18530273 C-50.23173397 394.23173842 -93.59553839 342.02497253 -121.05908203 305.18530273 C-121.56197754 304.51370117 -122.06487305 303.84209961 -122.58300781 303.15014648 C-130.23793441 292.88458018 -137.26011087 282.38894137 -143.76806641 271.36157227 C-145.00911767 269.26952784 -146.27256238 267.19291197 -147.54345703 265.11889648 C-172.50402274 224.06722836 -189.52069016 176.9863543 -195.05908203 129.18530273 C-195.15261963 128.39776611 -195.24615723 127.61022949 -195.3425293 126.79882812 C-196.18197781 118.83124529 -196.31349191 110.85752207 -196.35424805 102.85351562 C-196.36573885 101.2918998 -196.38614477 99.73032236 -196.41577148 98.16894531 C-196.8085739 77.33725069 -191.99447153 58.64789303 -177.25683594 43.25732422 C-133.66145753 -0.43493281 -57.40558051 -0.0083757 0 0 Z " fill="#E02972" transform="translate(196.05908203125,37.814697265625)"/>
<path d="M0 0 C1.80483215 -0.00967704 3.60966211 -0.01977196 5.41448975 -0.03025818 C9.18653798 -0.04812318 12.95838127 -0.05378998 16.73046875 -0.05200195 C20.54535948 -0.05175929 24.35916091 -0.07241659 28.17382812 -0.11352539 C48.66761327 -0.3312514 68.08666144 -0.51750374 87.82769775 5.74391174 C91.01448621 6.7502543 94.23304116 7.62031619 97.4584198 8.49327087 C99.58689697 9.07738949 101.7036833 9.69476568 103.8203125 10.3203125 C106.99342316 11.21981663 110.15252238 11.88607276 113.3984375 12.46875 C124.25794583 14.52333288 130.49218965 16.9259309 136.9296875 26.10546875 C137.31415039 26.67942383 137.69861328 27.25337891 138.09472656 27.84472656 C139.82961257 30.37049463 141.81709845 32.66790693 143.796875 35.00390625 C147.13836699 39.11140813 150.42437857 43.25942496 153.671875 47.44140625 C154.31008179 48.25738281 154.31008179 48.25738281 154.96118164 49.08984375 C158.6718604 53.90629428 160.72285948 57.13427706 160.55102539 63.37207031 C159.58451511 69.87906163 155.17751547 75.23547786 150.921875 80.00390625 C150.14952515 80.88731689 150.14952515 80.88731689 149.36157227 81.78857422 C143.99215744 87.88013504 138.41950171 93.78524143 132.83984375 99.68359375 C127.90687265 104.89848603 123.07307989 110.20161287 118.234375 115.50390625 C116.40211573 117.50489155 114.56823627 119.5043892 112.734375 121.50390625 C111.81767887 122.50387924 110.90101217 123.50387921 109.984375 124.50390625 C108.15104167 126.50390625 106.31770833 128.50390625 104.484375 130.50390625 C104.03070557 130.99882568 103.57703613 131.49374512 103.10961914 132.00366211 C102.19216815 133.00450293 101.27468764 134.0053167 100.35717773 135.00610352 C98.07726949 137.49301886 95.79786207 139.9803894 93.51953125 142.46875 C88.26499151 148.20646581 82.99691212 153.93135642 77.71728516 159.64599609 C72.99575803 164.7583124 68.2926783 169.88738342 63.59326172 175.02001953 C61.30795004 177.51555032 59.0210792 180.00965152 56.734375 182.50390625 C55.81770096 183.5038995 54.9010343 184.50389949 53.984375 185.50390625 C48.484375 191.50390625 48.484375 191.50390625 47.10791016 193.00537109 C46.19594921 194.00032599 45.28416388 194.99544188 44.37255859 195.99072266 C42.01034624 198.56929506 39.64468072 201.14457159 37.2734375 203.71484375 C36.78552734 204.24464844 36.29761719 204.77445313 35.79492188 205.3203125 C34.44493707 206.78601029 33.09360755 208.25046919 31.7421875 209.71484375 C29.15937058 212.58732238 26.68879028 215.52165973 24.234375 218.50390625 C20.66335691 217.01797926 18.68894744 215.03647778 16.171875 212.12890625 C15.38425781 211.23171875 14.59664063 210.33453125 13.78515625 209.41015625 C12.94339844 208.45109375 12.10164063 207.49203125 11.234375 206.50390625 C9.44780382 204.54052522 7.65737851 202.58171745 5.859375 200.62890625 C4.92440183 199.61074809 3.98950663 198.59251834 3.0546875 197.57421875 C2.58836914 197.06665039 2.12205078 196.55908203 1.64160156 196.03613281 C-0.66271052 193.52713513 -2.96403591 191.01540157 -5.265625 188.50390625 C-6.18227692 187.50389273 -7.0989436 186.50389274 -8.015625 185.50390625 C-13.515625 179.50390625 -19.015625 173.50390625 -24.515625 167.50390625 C-24.96953613 167.00874512 -25.42344727 166.51358398 -25.89111328 166.00341797 C-26.80621133 165.00509964 -27.72125055 164.00672739 -28.63623047 163.00830078 C-30.95141352 160.48212205 -33.2676651 157.95693793 -35.5859375 155.43359375 C-39.81329251 150.8304086 -44.03088583 146.21976849 -48.203125 141.56640625 C-52.66206415 136.59878242 -57.19000831 131.69707373 -61.72265625 126.796875 C-65.96353233 122.21123415 -70.18017349 117.60345708 -74.39794922 112.99658203 C-75.79141652 111.47575749 -77.18650251 109.95643301 -78.58203125 108.4375 C-81.31404297 105.46341129 -84.04098123 102.48474787 -86.765625 99.50390625 C-87.52617188 98.67246094 -88.28671875 97.84101563 -89.0703125 96.984375 C-91.32006754 94.50644196 -93.54325214 92.00641014 -95.765625 89.50390625 C-96.21470215 89.0130957 -96.6637793 88.52228516 -97.12646484 88.01660156 C-104.47349781 79.97569606 -112.19635273 71.24768352 -113.03125 59.890625 C-112.38152763 51.60666482 -106.5361108 45.86851336 -101.08984375 40.03515625 C-98.8695494 37.61708778 -96.80442569 35.13830652 -94.765625 32.56640625 C-93.83218262 31.40854614 -93.83218262 31.40854614 -92.87988281 30.22729492 C-90.74602422 27.54963754 -90.74602422 27.54963754 -88.94897461 24.75708008 C-82.84386687 16.08514668 -76.2597792 14.06587548 -66.328125 12.12890625 C-64.88727401 11.81481466 -63.4474076 11.49617353 -62.00854492 11.1730957 C-59.19449974 10.54399929 -56.37761253 9.93267019 -53.55664062 9.33544922 C-48.83895544 8.30064527 -44.21075696 7.05131975 -39.578125 5.69140625 C-36.9776471 4.93713151 -34.37924703 4.20823157 -31.765625 3.50390625 C-30.91334824 3.25756439 -30.06107147 3.01122253 -29.18296814 2.75741577 C-19.40793638 0.1793887 -10.0316146 0.01283288 0 0 Z " fill="#FEFDFD" transform="translate(176.765625,124.49609375)"/>
<path d="M0 0 C1.13971756 -0.00744736 1.13971756 -0.00744736 2.30245972 -0.01504517 C4.82998558 -0.02970597 7.35744825 -0.03648255 9.88500977 -0.04199219 C11.65267436 -0.0477495 13.42033895 -0.05350715 15.18800354 -0.05926514 C18.90968109 -0.06979237 22.63133699 -0.07562077 26.35302734 -0.07910156 C31.06840752 -0.08452755 35.78349024 -0.10841908 40.49877834 -0.13707352 C44.16165417 -0.15594118 47.82446262 -0.16091856 51.48738289 -0.16243744 C53.22170667 -0.16542102 54.95603054 -0.17329948 56.69030571 -0.18662262 C76.45765858 -0.32737881 97.58131858 0.37963849 112.57250977 14.81738281 C120.18605434 23.45278309 120.53264041 33.9422741 119.90405273 44.92578125 C118.94974524 52.97148976 113.94579927 59.81685636 108.13891602 65.20410156 C102.92670091 69.2842887 97.29211518 72.73110186 91.63891602 76.16113281 C92.22157227 76.38027344 92.80422852 76.59941406 93.40454102 76.82519531 C106.46555045 81.87709519 119.17951241 87.28842313 126.13891602 100.28613281 C126.67414169 101.56360542 127.17681471 102.85542796 127.63891602 104.16113281 C128.25766602 105.89363281 128.25766602 105.89363281 128.88891602 107.66113281 C131.59137868 119.98046712 130.02268929 132.40952379 123.88891602 143.34863281 C114.32635328 158.2263093 99.74336437 163.86710849 83.18261719 167.71557617 C73.35037483 169.43779925 63.53042652 169.34215268 53.58422852 169.36425781 C52.7246542 169.36708519 51.86507988 169.36991257 50.97945786 169.37282562 C46.44374033 169.3877327 41.90805401 169.39701963 37.37231445 169.40136719 C32.68807211 169.40688515 28.00411556 169.43100638 23.31996346 169.45933914 C19.71179343 169.47792572 16.10369345 169.48316866 12.49547958 169.48470306 C10.76746915 169.48773169 9.03946001 169.49576731 7.31149673 169.50888824 C4.90364529 169.5258894 2.49650967 169.5240851 0.08862305 169.51757812 C-0.62516006 169.52679291 -1.33894318 169.53600769 -2.07435608 169.54550171 C-4.97169263 169.52089843 -6.90547231 169.47776893 -9.32351685 167.79730225 C-10.36108398 166.16113281 -10.36108398 166.16113281 -10.41186523 163.62597656 C-9.36108398 161.16113281 -9.36108398 161.16113281 -6.77905273 159.79003906 C-5.71299805 159.438125 -4.64694336 159.08621094 -3.54858398 158.72363281 C0.37021175 157.22677371 2.36652184 156.45298372 5.26391602 153.34863281 C11.02964107 139.98263382 9.78968224 124.67942443 9.77172852 110.40722656 C9.77240412 108.49691251 9.77337627 106.58659855 9.77462769 104.67628479 C9.7760951 100.68481625 9.7739827 96.6933702 9.76928711 92.7019043 C9.7636177 87.64165399 9.76685723 82.58145707 9.77285957 77.52120876 C9.77651452 73.57698685 9.77530379 69.63277709 9.77273178 65.68855476 C9.77207465 63.8258571 9.77284734 61.96315824 9.77521133 60.10046196 C9.78451326 50.70630333 9.69887654 41.31820965 9.31811523 31.9309082 C9.28516955 30.80411353 9.28516955 30.80411353 9.2515583 29.65455532 C8.96096327 23.64018936 7.98322698 16.95627281 4.01391602 12.22363281 C1.65304544 11.16745387 -0.39366754 10.71567491 -2.92358398 10.22363281 C-5.94589782 9.62116169 -7.12906247 9.36585768 -9.48608398 7.28613281 C-10.36108398 5.16113281 -10.36108398 5.16113281 -10.17358398 2.97363281 C-8.35244755 -1.0889023 -3.83558694 0.00595201 0 0 Z M45.63891602 13.16113281 C44.67772556 16.04470418 44.50199448 17.90571703 44.4777832 20.90454102 C44.46817566 21.86596512 44.45856812 22.82738922 44.44866943 23.81794739 C44.44441956 24.85545639 44.44016968 25.89296539 44.43579102 26.96191406 C44.43009094 28.03104538 44.42439087 29.1001767 44.41851807 30.20170593 C44.40906786 32.46543386 44.402534 34.72917555 44.39868164 36.99291992 C44.38898337 40.44962689 44.35796258 43.90573747 44.32641602 47.36230469 C44.3198851 49.56217095 44.31463498 51.76204146 44.31079102 53.96191406 C44.29844421 54.99335037 44.28609741 56.02478668 44.27337646 57.08747864 C44.29012063 62.50435779 44.46390102 66.5422951 47.63891602 71.16113281 C51.96445563 74.04482589 55.56221205 73.71661704 60.63891602 73.16113281 C68.20766704 71.41046602 74.73334424 68.31329695 79.63891602 62.16113281 C85.13967803 52.98280753 85.03476057 41.11557728 82.97875977 30.87207031 C80.42647123 22.85059206 75.87465786 17.670548 68.45141602 13.78613281 C63.78076822 11.59825299 59.73901363 11.00561917 54.57641602 10.97363281 C53.53356445 10.95945312 52.49071289 10.94527344 51.41625977 10.93066406 C48.42652122 10.95317977 48.42652122 10.95317977 45.63891602 13.16113281 Z M46.88891602 89.53613281 C44.50609403 92.6338014 44.51136436 96.08382222 44.49365234 99.87866211 C44.48727249 100.81030685 44.48089264 101.7419516 44.47431946 102.701828 C44.47320663 103.70289078 44.47209381 104.70395355 44.47094727 105.73535156 C44.46761887 106.77375687 44.46429047 107.81216217 44.46086121 108.8820343 C44.45579983 111.08012449 44.45345264 113.27822235 44.45361328 115.47631836 C44.45143555 118.81865333 44.43329545 122.16065347 44.41430664 125.50292969 C44.41137071 127.64290252 44.40938725 129.78287692 44.40844727 131.92285156 C44.40126175 132.91379318 44.39407623 133.9047348 44.38667297 134.92570496 C44.36252575 145.37808177 44.36252575 145.37808177 48.51391602 154.66113281 C53.70749762 158.32719041 60.55778865 157.69597895 66.63891602 157.16113281 C76.13201688 154.81820638 82.07612348 150.90048332 87.27954102 142.62597656 C92.58438381 133.00713805 93.17320956 121.62254842 90.98266602 110.96972656 C88.13114347 102.13246488 82.70511764 95.76453201 74.66235352 91.18847656 C66.26863149 86.92679916 55.10696291 83.07909597 46.88891602 89.53613281 Z " fill="#324A8B" transform="translate(523.361083984375,269.8388671875)"/>
<path d="M0 0 C14.51659693 -0.07010698 29.03316758 -0.12279693 43.5498991 -0.15543652 C50.29040374 -0.17089995 57.03080314 -0.19197931 63.77124023 -0.22631836 C70.27456582 -0.25943363 76.77782308 -0.27684723 83.28122902 -0.28463173 C85.76397232 -0.29018025 88.24670955 -0.30101494 90.72940636 -0.31719017 C94.20344415 -0.33892659 97.67702833 -0.34196844 101.15112305 -0.34057617 C102.18042938 -0.351362 103.20973572 -0.36214783 104.27023315 -0.3732605 C113.07311205 -0.33501696 113.07311205 -0.33501696 117 3 C119.86970042 8.94037334 119.4806306 16.901445 119.75 23.375 C119.80542969 24.35855469 119.86085938 25.34210937 119.91796875 26.35546875 C119.98177734 27.76892578 119.98177734 27.76892578 120.046875 29.2109375 C120.10633301 30.48396729 120.10633301 30.48396729 120.16699219 31.78271484 C120 34 120 34 118 37 C114.625 37.5625 114.625 37.5625 111 37 C108.60133001 34.31913354 107.36921124 31.79279262 105.859375 28.55078125 C102.77408345 22.01894565 100.18978186 17.68819612 93.33520508 14.92626953 C84.77883047 12.0721413 77.16230814 11.50476089 68.1875 11.75 C66.27227539 11.77707031 66.27227539 11.77707031 64.31835938 11.8046875 C61.2114131 11.85123351 58.1061375 11.91659654 55 12 C54.11746888 15.04554046 53.86397017 17.78231075 53.83886719 20.94873047 C53.82925964 21.93009979 53.8196521 22.91146912 53.80975342 23.9225769 C53.80550354 24.9767984 53.80125366 26.0310199 53.796875 27.1171875 C53.78832489 28.75205612 53.78832489 28.75205612 53.77960205 30.41995239 C53.77016067 32.72478263 53.7636215 35.02962631 53.75976562 37.33447266 C53.7500559 40.85473211 53.71902202 44.37440867 53.6875 47.89453125 C53.68097003 50.13541321 53.67571953 52.37629933 53.671875 54.6171875 C53.6595282 55.66736053 53.6471814 56.71753357 53.63446045 57.79953003 C53.65105043 63.25936112 53.81341636 67.33067552 57 72 C61.19113276 74.09556638 66.70782668 73.18492612 71.3125 73.1875 C72.45396484 73.19974609 73.59542969 73.21199219 74.77148438 73.22460938 C75.87427734 73.22654297 76.97707031 73.22847656 78.11328125 73.23046875 C79.62595581 73.23663208 79.62595581 73.23663208 81.16918945 73.24291992 C84.18221224 72.98436385 86.31235694 72.3739323 89 71 C91.76438023 66.74710734 92.95160481 62.02791427 94.25390625 57.171875 C95 55 95 55 97 53 C100 52.75 100 52.75 103 53 C105.54273722 55.54273722 105.2526488 56.44439439 105.25878906 59.96875 C105.26509338 61.00322266 105.27139771 62.03769531 105.27789307 63.10351562 C105.2738446 64.22435547 105.26979614 65.34519531 105.265625 66.5 C105.26753845 67.64662109 105.2694519 68.79324219 105.27142334 69.97460938 C105.27278622 72.40234598 105.26908267 74.83008984 105.26074219 77.2578125 C105.25004438 80.98454073 105.26063431 84.71078686 105.2734375 88.4375 C105.27211592 90.79166774 105.26955357 93.14583517 105.265625 95.5 C105.26967346 96.62083984 105.27372192 97.74167969 105.27789307 98.89648438 C105.26843658 100.44819336 105.26843658 100.44819336 105.25878906 102.03125 C105.25719788 102.94455078 105.25560669 103.85785156 105.25396729 104.79882812 C105 107 105 107 103 109 C100.0625 109.375 100.0625 109.375 97 109 C93.56371104 105.39608718 92.97396103 101.38392221 91.94140625 96.65625 C90.83579674 93.5366879 89.54061509 92.08947783 87 90 C82.13725189 88.37908396 77.15510494 88.73219811 72.0625 88.6875 C70.96486328 88.65849609 69.86722656 88.62949219 68.73632812 88.59960938 C67.67994141 88.59123047 66.62355469 88.58285156 65.53515625 88.57421875 C64.569729 88.55963623 63.60430176 88.54505371 62.60961914 88.5300293 C59.13325662 89.15609327 58.0890982 90.16895228 56 93 C53.83678309 98.5296483 53.70668323 103.71096619 53.734375 109.5546875 C53.73246155 110.45567169 53.7305481 111.35665588 53.72857666 112.28494263 C53.7272215 114.18264039 53.73087099 116.08034763 53.73925781 117.97802734 C53.74994165 120.85926499 53.73935261 123.73987562 53.7265625 126.62109375 C53.7278847 128.47395969 53.73044835 130.32682525 53.734375 132.1796875 C53.73032654 133.02997528 53.72627808 133.88026306 53.72210693 134.75631714 C53.77401449 141.48813008 54.87207052 147.61621155 57 154 C72.30318983 157.85158935 90.64828889 158.11934919 104.7578125 150.44921875 C112.11649685 145.69299594 115.40748826 137.8064114 119.265625 130.23046875 C121 127 121 127 123 125 C125.4375 124.625 125.4375 124.625 128 125 C130.05186921 127.11100867 130.95214484 128.35797145 131.1730957 131.32226562 C130.2740136 138.82099297 128.87296654 146.13915359 127.1875 153.5 C126.8152832 155.24796875 126.8152832 155.24796875 126.43554688 157.03125 C126.18224609 158.145 125.92894531 159.25875 125.66796875 160.40625 C125.44391357 161.40978516 125.2198584 162.41332031 124.98901367 163.44726562 C123.79896287 166.51889513 122.78944744 167.30763406 120 169 C117.65772152 169.38031673 117.65772152 169.38031673 115.02146912 169.38768005 C114.01902161 169.39758469 113.0165741 169.40748932 111.98374939 169.41769409 C110.89010574 169.41319244 109.7964621 169.4086908 108.66967773 169.40405273 C107.51323761 169.41091599 106.35679749 169.41777924 105.16531372 169.42485046 C101.33794931 169.44317117 97.51099265 169.43927392 93.68359375 169.43359375 C91.69930694 169.43700062 89.71501992 169.44041466 87.73073536 169.44494683 C81.49402909 169.45898962 75.25745981 169.45743191 69.02075195 169.44604492 C62.58470933 169.43455376 56.14908292 169.44865621 49.71309513 169.4754414 C44.18686881 169.49757993 38.66077333 169.5042403 33.13450581 169.49836498 C29.83396767 169.4949909 26.53375634 169.49914069 23.23324394 169.51461601 C19.55548647 169.52943206 15.87865547 169.51891771 12.20092773 169.50170898 C11.10525986 169.51137695 10.00959198 169.52104492 8.88072205 169.53100586 C7.38128052 169.51625465 7.38128052 169.51625465 5.85154724 169.50120544 C4.98196097 169.50099616 4.11237471 169.50078688 3.21643734 169.50057125 C1 169 1 169 -0.8188467 167.12883091 C-2 165 -2 165 -1.75 162.4375 C0.61742485 159.14001539 2.95391055 158.8968913 6.74609375 157.7890625 C10.78850874 156.37386696 12.95490768 153.98040603 14.9296875 150.23828125 C20.06070461 137.41073848 18.15033031 120.6566195 18.1328125 107.0390625 C18.13348872 105.15449003 18.13446136 103.26991764 18.13571167 101.38534546 C18.13717444 97.46066446 18.13508077 93.53600643 18.13037109 89.61132812 C18.12468266 84.63404822 18.12795638 79.65682237 18.13394356 74.67954445 C18.13759464 70.79456186 18.13638981 66.90959162 18.13381577 63.02460861 C18.13315859 61.19178638 18.13393147 59.35896295 18.13629532 57.52614212 C18.14546054 48.42500294 18.06784743 39.32966965 17.67919922 30.23583984 C17.64625354 29.16529075 17.64625354 29.16529075 17.61264229 28.0731144 C17.3217051 22.38221574 16.2093697 16.54927273 12.375 12.125 C9.99882819 10.99944493 8.00783521 10.55823726 5.4375 10.0625 C2.45700621 9.4624666 1.19725282 9.16343805 -1.1875 7.1875 C-2.30154005 4.18816141 -1.26184253 2.83797298 0 0 Z " fill="#324A8B" transform="translate(515,38)"/>
<path d="M0 0 C1.5362637 1.5362637 1.16227822 2.96673804 1.20532227 5.109375 C1.2352401 6.43622818 1.2352401 6.43622818 1.26576233 7.78988647 C1.28247482 8.76672394 1.29918732 9.7435614 1.31640625 10.75 C1.33718735 11.77106842 1.35796844 12.79213684 1.37937927 13.84414673 C1.44597913 17.22935069 1.50453451 20.61463793 1.5625 24 C1.58401123 25.15038757 1.60552246 26.30077515 1.62768555 27.48602295 C1.99770504 47.33674346 2.08130184 67.18155526 1.96313477 87.03515625 C1.95886978 88.03042328 1.9546048 89.02569031 1.95021057 90.05111694 C1.94195317 91.91102536 1.92952539 93.77092162 1.91221619 95.63076782 C1.7591847 99.95076621 1.7591847 99.95076621 3 104 C6.4203524 103.74197342 7.73734991 103.27363364 10.1484375 100.76171875 C11.25058594 99.23998047 11.25058594 99.23998047 12.375 97.6875 C13.2352824 96.51403347 14.09598926 95.34087804 14.95703125 94.16796875 C15.43092285 93.5136084 15.90481445 92.85924805 16.39306641 92.18505859 C18.20913772 89.71562099 20.07543799 87.28920214 21.94921875 84.86328125 C23.32047258 83.07564361 24.69156668 81.28788345 26.0625 79.5 C26.73007324 78.63979248 27.39764648 77.77958496 28.08544922 76.89331055 C28.70822754 76.07258057 29.33100586 75.25185059 29.97265625 74.40625 C30.53218994 73.67728516 31.09172363 72.94832031 31.66821289 72.19726562 C33.1324457 69.7814828 33.61150301 67.78082053 34 65 C33.030625 64.443125 32.06125 63.88625 31.0625 63.3125 C28 61 28 61 26.9375 58.4375 C27 56 27 56 28 54.37036133 C31.12226478 52.23104588 34.40967399 52.59260214 38.0625 52.63671875 C39.24404663 52.63597099 39.24404663 52.63597099 40.44946289 52.63520813 C42.11379521 52.63754718 43.77813116 52.64726584 45.44238281 52.66381836 C47.99055599 52.68741256 50.53768284 52.68437814 53.0859375 52.67773438 C54.70313124 52.68331125 56.32032057 52.69042119 57.9375 52.69921875 C58.70006104 52.69830734 59.46262207 52.69739594 60.24829102 52.69645691 C64.02809414 52.74714239 65.77830539 52.85220359 69 55 C68.51670589 59.36474993 67.34086852 61.07934266 64 63.875 C63.278125 64.49117188 62.55625 65.10734375 61.8125 65.7421875 C60.23502821 67.00854679 58.64791786 68.26381084 57.02905273 69.47680664 C50.89422598 74.10608823 45.46729241 79.23183896 40.0625 84.6875 C39.21365234 85.52861328 38.36480469 86.36972656 37.49023438 87.23632812 C36.2749707 88.45545898 36.2749707 88.45545898 35.03515625 89.69921875 C33.94279663 90.79496216 33.94279663 90.79496216 32.82836914 91.9128418 C31.04324524 93.95063379 29.85998296 95.43536965 29 98 C29.31266497 101.68449278 30.39384342 103.98215218 32.59765625 106.90625 C33.14381592 107.639646 33.68997559 108.37304199 34.25268555 109.12866211 C34.84992432 109.91120361 35.44716309 110.69374512 36.0625 111.5 C36.99219604 112.73665405 36.99219604 112.73665405 37.94067383 113.99829102 C39.26739153 115.75980284 40.59817124 117.5182613 41.93261719 119.27392578 C44.00320843 122.00423067 46.05394038 124.74853411 48.1015625 127.49609375 C61.91811739 147.51949959 61.91811739 147.51949959 81.9375 159.9375 C84 161 84 161 84.9375 163.4375 C85 166 85 166 83 169 C80.23208212 169.30452459 77.69186915 169.41999819 74.921875 169.3984375 C73.71558441 169.40274277 73.71558441 169.40274277 72.48492432 169.40713501 C70.78014423 169.40917881 69.07534086 169.40362687 67.37060547 169.39111328 C64.77387183 169.37514678 62.17871449 169.39090693 59.58203125 169.41015625 C57.92447575 169.40817223 56.26692123 169.40432529 54.609375 169.3984375 C53.83728699 169.40451019 53.06519897 169.41058289 52.26971436 169.4168396 C46.73006172 169.34545585 42.60099433 168.22522991 38.26953125 164.51953125 C33.38004352 158.79109657 29.19826 152.61455675 24.98046875 146.38671875 C21.90802925 141.8501417 18.7777 137.35608207 15.625 132.875 C15.13749268 132.17705322 14.64998535 131.47910645 14.14770508 130.76000977 C11.26904405 126.67271663 8.25281546 122.79692277 5 119 C4.01 119.33 3.02 119.66 2 120 C1.99191315 120.58437836 1.98382629 121.16875671 1.97549438 121.77084351 C1.88962436 127.83768975 1.79012925 133.90420259 1.68261719 139.97070312 C1.64426729 142.23659682 1.60942517 144.50255265 1.578125 146.76855469 C1.53260473 150.02040867 1.47458924 153.2718326 1.4140625 156.5234375 C1.39673569 158.05005508 1.39673569 158.05005508 1.37905884 159.60751343 C1.35918915 160.54833771 1.33931946 161.48916199 1.31884766 162.45849609 C1.30552399 163.28900482 1.29220032 164.11951355 1.2784729 164.97518921 C1 167 1 167 -1 169 C-3.765625 169.24291992 -3.765625 169.24291992 -7.25 169.23046875 C-8.4978125 169.22853516 -9.745625 169.22660156 -11.03125 169.22460938 C-12.3409375 169.21236328 -13.650625 169.20011719 -15 169.1875 C-16.3096875 169.18685547 -17.619375 169.18621094 -18.96875 169.18554688 C-28.71956465 169.14021767 -28.71956465 169.14021767 -31 168 C-31.00331015 167.27277898 -31.00662029 166.54555796 -31.01003075 165.79629993 C-31.0912457 148.10264916 -31.18333323 130.40908846 -31.28752708 112.71555805 C-31.33765213 104.15910442 -31.38409508 95.60266036 -31.421875 87.04614258 C-31.45481272 79.58841696 -31.4946538 72.13076568 -31.54279006 64.67312211 C-31.56803735 60.72424179 -31.58982386 56.77541066 -31.60334396 52.82647133 C-31.61618039 49.1090747 -31.6382518 45.39184693 -31.66738319 41.67454338 C-31.68076589 39.66093066 -31.68437742 37.64726041 -31.68769836 35.63360596 C-31.69886185 34.43192276 -31.71002533 33.23023956 -31.7215271 31.99214172 C-31.72705786 30.94959386 -31.73258862 29.90704599 -31.73828697 28.83290577 C-32.01756749 25.80984112 -32.57011568 23.67683055 -34 21 C-37.32519416 19.30096474 -37.32519416 19.30096474 -41 18 C-43.9375 16.6875 -43.9375 16.6875 -46 15 C-46.3125 11.8125 -46.3125 11.8125 -46 9 C-42.17757095 6.69708891 -38.01459438 6.07204719 -33.69140625 5.2734375 C-32.88767075 5.12089508 -32.08393524 4.96835266 -31.25584412 4.81118774 C-29.55937333 4.49068964 -27.8623398 4.17315792 -26.16479492 3.85839844 C-23.57379068 3.37709734 -20.98510157 2.88458521 -18.39648438 2.390625 C-16.74491794 2.08005693 -15.09322901 1.77013939 -13.44140625 1.4609375 C-12.67043106 1.31409515 -11.89945587 1.16725281 -11.1051178 1.01596069 C-7.37359082 0.3302129 -3.79849461 -0.28710877 0 0 Z " fill="#324A8B" transform="translate(948,270)"/>
<path d="M0 0 C6.26651635 4.88065216 9.32576192 12.38534934 11.1875 19.875 C11.44578552 23.31369019 11.44578552 23.31369019 11.45874023 26.95263672 C11.46396698 27.62195221 11.46919373 28.2912677 11.47457886 28.98086548 C11.48475144 30.42179929 11.49058738 31.86276914 11.49246025 33.30373764 C11.4961541 35.59207687 11.51296227 37.87999426 11.53321838 40.16824341 C11.5883411 46.66986207 11.61925521 53.17154132 11.64379883 59.67333984 C11.65975897 63.66269097 11.69006234 67.65174019 11.72856331 71.64093399 C11.74013572 73.15181374 11.74614297 74.66274765 11.74624443 76.17367172 C11.29991736 89.51465245 11.29991736 89.51465245 17.1875 100.875 C19.51298007 101.56856423 21.84630445 102.23649212 24.1875 102.875 C25.1875 103.875 25.1875 103.875 25.375 106.8125 C25.1875 109.875 25.1875 109.875 23.1875 111.875 C18.86119424 112.27621127 14.51938002 112.20394274 10.17651367 112.19067383 C8.02535245 112.18753697 5.8755981 112.21088287 3.72460938 112.23632812 C2.34375172 112.23860367 0.9628904 112.23930343 -0.41796875 112.23828125 C-2.29198364 112.24275269 -2.29198364 112.24275269 -4.20385742 112.24731445 C-8.89711218 111.76309732 -12.93628668 110.52825523 -16.5546875 107.33984375 C-20.13521766 102.51230136 -20.93803226 100.36958754 -20.97021484 94.36499023 C-20.97529556 93.69640488 -20.98037628 93.02781952 -20.98561096 92.338974 C-20.9963224 90.88430026 -21.00493954 89.42960997 -21.01173019 87.97491264 C-21.02352712 85.6660545 -21.04298582 83.35738275 -21.06484985 81.04859924 C-21.12641099 74.48290299 -21.18034206 67.91722223 -21.21386719 61.35131836 C-21.2349245 57.33528966 -21.2703238 53.31959516 -21.31462479 49.30375862 C-21.32870751 47.77893091 -21.33748962 46.25404399 -21.34067917 44.72915459 C-21.20402991 30.86983886 -21.20402991 30.86983886 -27.3125 18.875 C-32.44939984 14.76548013 -38.51966301 15.3080058 -44.8125 15.875 C-50.74883642 17.57248182 -54.3658909 20.86175041 -57.8125 25.875 C-59.19118346 29.67186804 -58.97181764 33.6531331 -58.98608398 37.64111328 C-58.992771 38.41877045 -58.99945801 39.19642761 -59.00634766 39.99765015 C-59.0203731 41.68257218 -59.03227508 43.36751292 -59.04229546 45.05246353 C-59.058725 47.71659465 -59.0819606 50.3805858 -59.10719299 53.04464722 C-59.17793704 60.61774728 -59.23823798 68.19090221 -59.28930664 75.76416016 C-59.32103241 80.39835254 -59.36228264 85.0323799 -59.40950203 89.66643906 C-59.42555062 91.43430503 -59.43785892 93.20220896 -59.44640923 94.97012711 C-59.45851397 97.43614819 -59.4826398 99.90177801 -59.50952148 102.36767578 C-59.51011063 103.10226013 -59.51069977 103.83684448 -59.51130676 104.59368896 C-59.58459516 109.64709516 -59.58459516 109.64709516 -61.8125 111.875 C-64.578125 112.11791992 -64.578125 112.11791992 -68.0625 112.10546875 C-69.3103125 112.10353516 -70.558125 112.10160156 -71.84375 112.09960938 C-73.1534375 112.08736328 -74.463125 112.07511719 -75.8125 112.0625 C-77.1221875 112.06185547 -78.431875 112.06121094 -79.78125 112.06054688 C-89.53206465 112.01521767 -89.53206465 112.01521767 -91.8125 110.875 C-91.82058685 109.79029419 -91.82867371 108.70558838 -91.83700562 107.5880127 C-91.9146096 97.34796522 -92.00238465 87.10804827 -92.10002708 76.86817169 C-92.1498973 71.60419838 -92.19622807 66.34024423 -92.234375 61.07617188 C-92.27134506 55.9926911 -92.31773659 50.90937439 -92.37056351 45.82603455 C-92.38904528 43.89007963 -92.404176 41.95408963 -92.41584396 40.01808167 C-92.43281315 37.29899421 -92.46187329 34.58027743 -92.49365234 31.86132812 C-92.49581253 31.06722534 -92.49797272 30.27312256 -92.50019836 29.45495605 C-92.5767448 24.30241773 -93.29359569 19.81170589 -94.8125 14.875 C-97.30013559 12.75590301 -99.08497504 12.85109868 -102.375 12.5625 C-105.8125 11.875 -105.8125 11.875 -107.875 9.5625 C-108.8125 6.875 -108.8125 6.875 -108.12646484 4.77734375 C-106.8125 2.875 -106.8125 2.875 -104.97509766 2.1171875 C-104.23308105 1.99601562 -103.49106445 1.87484375 -102.7265625 1.75 C-101.46791382 1.52896606 -101.46791382 1.52896606 -100.18383789 1.3034668 C-99.27754639 1.16207275 -98.37125488 1.02067871 -97.4375 0.875 C-95.53228536 0.54973555 -93.62734344 0.22287023 -91.72265625 -0.10546875 C-90.74570801 -0.26966309 -89.76875977 -0.43385742 -88.76220703 -0.60302734 C-85.88756302 -1.11171704 -83.0379172 -1.68896126 -80.18359375 -2.30078125 C-79.29140137 -2.49091797 -78.39920898 -2.68105469 -77.47998047 -2.87695312 C-75.78091485 -3.24256275 -74.08322805 -3.614658 -72.38720703 -3.99414062 C-67.8695053 -4.94326127 -64.38947018 -5.26373255 -59.8125 -4.125 C-59.1525 -1.485 -58.4925 1.155 -57.8125 3.875 C-52.13714593 4.4239422 -48.69777058 2.63723878 -43.875 0 C-29.31197185 -7.84269642 -14.47698271 -8.88216625 0 0 Z " fill="#324A8B" transform="translate(1371.8125,95.125)"/>
<path d="M0 0 C1.95593084 1.95593084 1.15394961 5.73429489 1.15771484 8.40625 C1.16279556 9.18197861 1.16787628 9.95770721 1.17311096 10.75694275 C1.18384082 12.44845436 1.19245066 14.1399804 1.19923019 15.83151245 C1.21099951 18.51413414 1.2304512 21.19659339 1.25234985 23.87915039 C1.31400341 31.50905895 1.36786284 39.13895496 1.40136719 46.76904297 C1.42239733 51.43228069 1.45777748 56.09522912 1.50212479 60.75830078 C1.5162307 62.53154068 1.52499493 64.30483185 1.52817917 66.078125 C1.49744626 78.82960742 1.49744626 78.82960742 5 91 C5.33 91.99 5.66 92.98 6 94 C8.42383077 95.16953416 8.42383077 95.16953416 11 96 C11.99 96.495 11.99 96.495 13 97 C20.38738837 97.77030887 26.70529685 97.12062897 33 93 C36.19622529 90.14021948 38.27852949 87.267681 39 83 C39.11714159 80.42335953 39.18484246 77.87133747 39.20532227 75.29394531 C39.21522186 74.52282913 39.22512146 73.75171295 39.23532104 72.95722961 C39.26685078 70.41422573 39.29165968 67.87120318 39.31640625 65.328125 C39.33698314 63.56263754 39.35797981 61.79715493 39.37937927 60.03167725 C39.43452399 55.38913909 39.48396675 50.74655702 39.53222656 46.10394287 C39.58249711 41.36482851 39.63815417 36.62577775 39.69335938 31.88671875 C39.80084798 22.5912002 39.90231356 13.29562637 40 4 C45.36416862 2.62532478 50.56406098 1.52563973 56.0625 0.875 C56.73087891 0.78863281 57.39925781 0.70226562 58.08789062 0.61328125 C62.41331881 0.08363698 66.6441127 -0.16646703 71 0 C73.08390652 2.08390652 72.16476394 6.63273407 72.17358398 9.5078125 C72.180271 10.40058395 72.18695801 11.29335541 72.19384766 12.21318054 C72.20793682 14.16006076 72.21981842 16.10695789 72.22979546 18.05386353 C72.24617192 21.13973025 72.26941255 24.22547347 72.29469299 27.3112793 C72.3655317 36.08815361 72.42538738 44.86508084 72.47680664 53.64208984 C72.50871131 59.00551525 72.55002648 64.36880317 72.59700203 69.7321167 C72.61296623 71.77331042 72.62531341 73.81453588 72.63390923 75.85577393 C72.64614869 78.72300031 72.67033768 81.58990787 72.69702148 84.45703125 C72.69761063 85.29272141 72.69819977 86.12841156 72.69880676 86.98942566 C72.69602717 96.5833605 72.69602717 96.5833605 76.6875 104.875 C78.64312456 105.82638492 80.6612545 106.64760769 82.6875 107.4375 C86 109 86 109 87.125 110.9375 C86.94681546 113.87754498 86.08666781 114.93165026 84 117 C80.92480469 117.50170898 80.92480469 117.50170898 77.171875 117.49609375 C76.17102875 117.4982766 76.17102875 117.4982766 75.14996338 117.50050354 C73.73778929 117.4988447 72.3255971 117.48728469 70.91357422 117.46655273 C68.77101056 117.43778213 66.63095203 117.44590426 64.48828125 117.45898438 C56.62663412 117.42331831 50.11226079 117.38699434 43.78515625 112.17578125 C43.21667969 111.56089844 42.64820313 110.94601563 42.0625 110.3125 C41.47597656 109.68988281 40.88945313 109.06726563 40.28515625 108.42578125 C39.64900391 107.72001953 39.64900391 107.72001953 39 107 C32.0322497 109.04227164 25.83080941 112.00416511 19.4296875 115.37890625 C9.38289797 120.12767351 -1.35477534 120.54887229 -11.8515625 116.9140625 C-21.23083669 112.92360766 -26.15235551 106.10115907 -30 97 C-31.14986772 93.40638159 -31.14412741 89.98933974 -31.17358398 86.23120117 C-31.180271 85.55911118 -31.18695801 84.88702118 -31.19384766 84.19456482 C-31.20786541 82.73883539 -31.2197698 81.2830844 -31.22979546 79.82732201 C-31.24626576 77.51886048 -31.26950693 75.21055782 -31.29469299 72.9021759 C-31.36529465 66.34005719 -31.42547438 59.77787342 -31.47680664 53.21557617 C-31.50871314 49.19731552 -31.5500178 45.17923834 -31.59700203 41.16112709 C-31.61295223 39.6346398 -31.62530578 38.10811033 -31.63390923 36.58156395 C-31.64615235 34.43984876 -31.67033873 32.29855977 -31.69702148 30.15698242 C-31.70732895 28.94104904 -31.71763641 27.72511566 -31.72825623 26.47233582 C-32.02144603 22.72596312 -32.72965466 19.53481035 -34 16 C-36.28210375 14.59763045 -36.28210375 14.59763045 -39 14.1875 C-43.86641929 13.13358071 -43.86641929 13.13358071 -46 11 C-46.25 8.5 -46.25 8.5 -46 6 C-43.19627608 3.19627608 -40.24313602 3.33074654 -36.46484375 2.9296875 C-35.71215714 2.84373322 -34.95947052 2.75777893 -34.18397522 2.66921997 C-32.58641288 2.48869337 -30.98836168 2.31244986 -29.38989258 2.14013672 C-26.97023058 1.87853862 -24.55255262 1.60255718 -22.13476562 1.32421875 C-20.57822174 1.15017428 -19.02158347 0.97697155 -17.46484375 0.8046875 C-16.39555885 0.68285599 -16.39555885 0.68285599 -15.30467224 0.55856323 C-10.22985038 0.0198495 -5.10063679 -0.36318403 0 0 Z " fill="#324A8B" transform="translate(694,90)"/>
<path d="M0 0 C6.83550659 5.66846888 11.79491175 12.2283381 13.5625 21.125 C13.66756627 23.26651561 13.7183224 25.41091379 13.73608398 27.55493164 C13.74957382 28.86051529 13.76306366 30.16609894 13.77696228 31.51124573 C13.78202223 32.20707827 13.78708218 32.9029108 13.79229546 33.61982918 C13.80879411 35.81177542 13.83203998 38.00355628 13.85719299 40.19541931 C13.9276891 46.42666255 13.98773486 52.65797632 14.03930664 58.8894043 C14.07137247 62.70668629 14.11272192 66.52378135 14.15950203 70.34090996 C14.17536773 71.78593977 14.18775907 73.23101257 14.19640923 74.67610359 C13.48769788 88.51582945 13.48769788 88.51582945 18.00975037 100.86903381 C20.3636521 102.77302459 22.94956192 103.34760594 25.8203125 104.18359375 C27.5625 105.125 27.5625 105.125 28.3671875 107.03515625 C28.5625 109.125 28.5625 109.125 27.5625 112.125 C23.10190576 114.35529712 17.03039418 113.35223029 12.06933594 113.36523438 C9.83490245 113.37490306 7.60140358 113.40590702 5.3671875 113.4375 C3.93750544 113.44403409 2.50781682 113.44928296 1.078125 113.453125 C-0.86658691 113.46714355 -0.86658691 113.46714355 -2.85058594 113.48144531 C-7.354821 113.03384232 -10.72198222 111.68974781 -14.08203125 108.625 C-17.91020273 103.70855235 -18.56230765 100.62941931 -18.59521484 94.4855957 C-18.60029556 93.81525803 -18.60537628 93.14492035 -18.61061096 92.45426941 C-18.62130503 90.9990653 -18.62992899 89.54384484 -18.63673019 88.08861732 C-18.64854408 85.7799543 -18.66800541 83.47147625 -18.68984985 81.16288757 C-18.75136631 74.5989708 -18.80539738 68.0350717 -18.83886719 61.47094727 C-18.85989998 57.45376964 -18.89527532 53.43692772 -18.93962479 49.41994286 C-18.95372128 47.89428873 -18.96249278 46.36857519 -18.96567917 44.84285927 C-18.98361157 37.07527267 -19.01618456 30.2417503 -22.4375 23.125 C-22.9325 21.64 -22.9325 21.64 -23.4375 20.125 C-25.81375345 18.94108777 -25.81375345 18.94108777 -28.4375 18.125 C-29.9225 17.63 -29.9225 17.63 -31.4375 17.125 C-38.23246533 16.29268497 -43.57918877 17.63276399 -49.4375 21.125 C-53.56620192 24.46309942 -55.08235094 27.04902757 -56.4375 32.125 C-56.63816345 34.83341781 -56.74829746 37.44255907 -56.75634766 40.14990234 C-56.77141609 41.32164505 -56.77141609 41.32164505 -56.78678894 42.51705933 C-56.81751284 45.08167836 -56.83462582 47.64619352 -56.8515625 50.2109375 C-56.87028285 51.99599087 -56.88985691 53.78103548 -56.9102478 55.56607056 C-56.96148343 60.25131044 -57.00115494 64.93657898 -57.03839111 69.62194824 C-57.07848457 74.40819337 -57.12955251 79.19432014 -57.1796875 83.98046875 C-57.27634529 93.36189592 -57.36078245 102.74339005 -57.4375 112.125 C-62.01412216 114.41331108 -68.41247292 113.31002705 -73.4375 113.3125 C-74.7471875 113.32474609 -76.056875 113.33699219 -77.40625 113.34960938 C-79.27796875 113.35250977 -79.27796875 113.35250977 -81.1875 113.35546875 C-82.33734375 113.35957764 -83.4871875 113.36368652 -84.671875 113.36791992 C-87.4375 113.125 -87.4375 113.125 -89.4375 111.125 C-89.64475493 108.32610379 -89.72798125 105.62402818 -89.72460938 102.82324219 C-89.73144241 101.96452011 -89.73827545 101.10579803 -89.74531555 100.22105408 C-89.75892682 98.35222757 -89.76796512 96.48336355 -89.77302551 94.61449432 C-89.78129627 91.6553188 -89.80178621 88.69645462 -89.82556152 85.73736572 C-89.8738707 79.44995658 -89.90673107 73.16251622 -89.9375 66.875 C-89.97317148 59.60343044 -90.01516496 52.33201154 -90.07344055 45.06058502 C-90.09348409 42.14801526 -90.10182535 39.23556131 -90.10974121 36.32293701 C-90.12271886 34.53006575 -90.13623993 32.73719832 -90.15039062 30.94433594 C-90.14940872 30.13683395 -90.14842682 29.32933197 -90.14741516 28.49736023 C-90.19633614 24.03751204 -90.50727174 20.24042796 -92.4375 16.125 C-95.71331392 14.76001074 -95.71331392 14.76001074 -99.4375 14.125 C-101.44111307 13.46927209 -103.44241933 12.80624706 -105.4375 12.125 C-105.5625 9.25 -105.5625 9.25 -105.4375 6.125 C-102.58481096 3.27231096 -99.30059516 3.10905047 -95.46484375 2.3984375 C-94.26922569 2.16962387 -94.26922569 2.16962387 -93.04945374 1.93618774 C-91.35799995 1.61472266 -89.66578627 1.29723455 -87.97290039 0.98339844 C-85.40725676 0.5060021 -82.84527637 0.01178115 -80.28320312 -0.484375 C-78.63561065 -0.79530052 -76.9878293 -1.10522717 -75.33984375 -1.4140625 C-74.58323959 -1.56090485 -73.82663544 -1.70774719 -73.04710388 -1.85903931 C-67.77320973 -2.82010104 -62.79860844 -2.99912893 -57.4375 -2.875 C-56.7775 -0.235 -56.1175 2.405 -55.4375 5.125 C-51.16931544 6.19204614 -50.80212909 6.1769085 -47.171875 4.32421875 C-46.36363281 3.92396484 -45.55539062 3.52371094 -44.72265625 3.11132812 C-43.88605469 2.68271484 -43.04945313 2.25410156 -42.1875 1.8125 C-28.16732478 -5.30763608 -14.53811264 -7.92987962 0 0 Z " fill="#324A8B" transform="translate(874.4375,325.875)"/>
<path d="M0 0 C6.61587035 5.18577312 10.10677391 10.42827383 11.45727539 18.73779297 C12.18156465 24.72437816 12.12015552 30.74975438 12.16338921 36.77139664 C12.17997895 39.00009164 12.20321738 41.22863 12.22828674 43.45724487 C12.2986007 49.78798469 12.35924336 56.11878357 12.41040039 62.44970703 C12.44226951 66.33641801 12.4835487 70.2229378 12.53059578 74.10949326 C12.54654857 75.58377519 12.55890095 77.05810085 12.56750298 78.532444 C12.57972014 80.5949058 12.60389111 82.65692047 12.63061523 84.71923828 C12.64607643 86.47507736 12.64607643 86.47507736 12.66184998 88.26638794 C12.94788451 91.68649948 13.54817339 94.37574272 14.93359375 97.515625 C17.91754667 98.89964478 17.91754667 98.89964478 20.93359375 99.515625 C21.93359375 100.515625 21.93359375 100.515625 22.30859375 103.828125 C21.93359375 107.515625 21.93359375 107.515625 19.99609375 109.765625 C12.16501555 114.24052683 4.46359683 115.79811333 -4.453125 114.046875 C-9.41176007 112.63252748 -12.63888966 110.57346011 -16.16796875 106.8203125 C-19.16585372 104.76003764 -21.44884676 104.56098625 -25.06640625 104.515625 C-27.72458989 105.62487243 -29.93778949 107.19331806 -32.25390625 108.890625 C-39.4304552 113.95642426 -44.31363302 115.21785322 -53.06640625 114.515625 C-63.6809588 112.39894003 -70.66441381 107.15150417 -77.06640625 98.515625 C-81.80795022 90.54241418 -82.5183249 81.68413145 -80.40625 72.7109375 C-77.54704369 64.56653165 -72.68850433 59.68828757 -65.12890625 55.703125 C-57.83318421 52.26331689 -50.34246968 49.2411992 -42.87133789 46.20581055 C-38.0335847 44.23000428 -33.23336432 42.19797185 -28.51171875 39.95703125 C-27.72555176 39.58392822 -26.93938477 39.2108252 -26.12939453 38.82641602 C-23.76183042 37.3221022 -22.52639232 35.90119145 -21.06640625 33.515625 C-19.89610346 25.1442699 -20.58546521 16.81189413 -25.06640625 9.515625 C-28.02533146 6.64124051 -30.51837385 6.32786478 -34.50390625 6.140625 C-39.78570255 6.3424212 -43.26573175 7.87383354 -47.19140625 11.453125 C-50.53210184 16.90959446 -52.02985723 23.10199001 -53.87890625 29.19140625 C-54.12640625 29.97902344 -54.37390625 30.76664063 -54.62890625 31.578125 C-54.83644531 32.27035156 -55.04398438 32.96257812 -55.2578125 33.67578125 C-56.23462214 35.89837709 -57.12272679 37.05230568 -59.06640625 38.515625 C-63.22926496 39.388952 -67.38322636 39.33152908 -71.2421875 37.4609375 C-73.69490092 35.74454591 -75.7103033 34.2278309 -77.06640625 31.515625 C-78.07558181 21.8374659 -75.99181653 14.88041018 -69.94140625 7.328125 C-63.38890064 0.31456888 -55.29331557 -3.32884492 -46.06640625 -5.484375 C-45.32777344 -5.66871094 -44.58914063 -5.85304688 -43.828125 -6.04296875 C-29.97367031 -8.25732997 -12.08699755 -7.58579052 0 0 Z M-46.06640625 65.515625 C-49.199977 70.89590686 -50.90880008 76.25784227 -50.06640625 82.515625 C-48.22133943 87.64081061 -45.60136614 90.52084017 -41.06640625 93.515625 C-36.78763695 94.93318475 -33.70339226 94.69916334 -29.37890625 93.453125 C-24.72042312 90.72835185 -21.81285049 87.75495772 -20.06640625 82.515625 C-19.86264742 78.3483288 -19.88060226 74.18094961 -19.88110352 70.0090332 C-19.87891038 67.95698511 -19.86072135 65.90546912 -19.84179688 63.85351562 C-19.83986328 62.56509766 -19.83792969 61.27667969 -19.8359375 59.94921875 C-19.83182861 58.76384521 -19.82771973 57.57847168 -19.82348633 56.35717773 C-19.77045776 53.38203534 -19.77045776 53.38203534 -22.06640625 51.515625 C-30.96277151 50.44089631 -40.5793635 59.20161451 -46.06640625 65.515625 Z " fill="#324A8B" transform="translate(1241.06640625,93.484375)"/>
<path d="M0 0 C7.72525575 5.97378076 10.3335265 11.95713184 11.9296875 21.4921875 C12.3371207 26.83553958 12.37072471 32.15730203 12.37109375 37.51171875 C12.38289852 39.0248083 12.39627016 40.53788634 12.41111755 42.0509491 C12.44698219 45.99859771 12.46741201 49.94614419 12.48266602 53.8939209 C12.50768161 60.22767585 12.54741884 66.56120555 12.60456657 72.8947506 C12.62076517 75.09214608 12.62465947 77.28932312 12.62757874 79.48677063 C12.63736049 80.84250254 12.64762466 82.19823108 12.65844727 83.55395508 C12.66485985 85.31501335 12.66485985 85.31501335 12.67140198 87.11164856 C12.95619593 90.83913988 13.62092374 93.98950895 14.9296875 97.4921875 C16.91692018 98.19599907 18.91746703 98.8633686 20.9296875 99.4921875 C22.5546875 102.3046875 22.5546875 102.3046875 22.9296875 105.4921875 C20.99573558 109.76723912 17.97291167 111.11966071 13.8046875 112.8046875 C6.25997416 115.27605831 -0.73401402 115.65280135 -8.13671875 112.5546875 C-10.32933842 111.34985407 -12.17867302 109.92749849 -14.1328125 108.3671875 C-17.84051668 105.50901554 -20.2184022 104.07391937 -25.0703125 104.4921875 C-27.72515366 106.06591108 -30.13587584 107.83895935 -32.59765625 109.69921875 C-38.95382648 114.30819527 -45.32933419 115.35749323 -53.0703125 114.4921875 C-63.21507776 112.42732377 -69.90303009 107.74017927 -76.0703125 99.4921875 C-80.95420009 91.5043834 -82.22982207 83.41445962 -80.6796875 74.16015625 C-78.6729563 66.81500553 -74.0752662 60.87764333 -67.52490234 56.97607422 C-59.5246778 53.07967114 -51.38111892 49.62985497 -43.1328125 46.3046875 C-41.19520028 45.52262316 -39.25827445 44.73905333 -37.323349 43.95036316 C-35.5870454 43.24265861 -33.84840475 42.54069564 -32.10961914 41.83911133 C-29.05161096 40.55901794 -29.05161096 40.55901794 -26.29467773 38.82299805 C-24.0703125 37.4921875 -24.0703125 37.4921875 -22.0703125 37.4921875 C-19.68199099 30.32722296 -19.87968502 20.20092591 -22.7578125 13.1796875 C-24.64905261 9.73868118 -26.23759388 7.76976037 -30.0703125 6.4921875 C-35.7675687 5.76420476 -40.20302492 6.2095982 -45.0703125 9.4921875 C-48.33542354 13.05128364 -49.84034407 16.10944353 -51.1328125 20.7421875 C-51.4628125 21.87785156 -51.7928125 23.01351562 -52.1328125 24.18359375 C-52.4421875 25.27542969 -52.7515625 26.36726563 -53.0703125 27.4921875 C-53.57736926 29.22544402 -54.09622595 30.95534426 -54.6328125 32.6796875 C-54.84035156 33.37449219 -55.04789063 34.06929687 -55.26171875 34.78515625 C-56.0703125 36.4921875 -56.0703125 36.4921875 -59.0703125 38.4921875 C-64.28392537 39.35808474 -68.73484372 39.20396062 -73.1328125 36.1171875 C-76.92532667 32.72813228 -76.92532667 32.72813228 -77.30859375 29.4609375 C-77.56784937 20.83727682 -75.37941025 13.99948163 -69.9453125 7.2421875 C-63.36154652 0.29343663 -55.2764166 -3.3571428 -46.0703125 -5.5078125 C-45.33167969 -5.69214844 -44.59304688 -5.87648438 -43.83203125 -6.06640625 C-30.02418495 -8.27331803 -12.00605608 -7.65669237 0 0 Z M-34.0078125 55.5546875 C-34.62954346 55.96589844 -35.25127441 56.37710938 -35.8918457 56.80078125 C-42.7657703 61.47348999 -47.33130974 66.06192784 -49.6640625 74.2265625 C-50.56495225 79.25075531 -49.73686379 83.10576083 -47.5078125 87.7421875 C-44.01486486 91.68294894 -40.34153559 94.12456433 -35.01953125 94.72265625 C-30.07098262 94.46321778 -27.12410618 92.42457294 -23.515625 89.16015625 C-20.05751283 85.16930788 -19.81432054 81.83254831 -19.8046875 76.609375 C-19.80277405 75.95389679 -19.8008606 75.29841858 -19.79888916 74.62307739 C-19.79753247 73.24301772 -19.80119279 71.86294507 -19.80957031 70.48291016 C-19.82031232 68.36722366 -19.80964065 66.25237957 -19.796875 64.13671875 C-19.79819601 62.79426896 -19.8007572 61.45181969 -19.8046875 60.109375 C-19.80694336 58.88847168 -19.80919922 57.66756836 -19.81152344 56.40966797 C-19.76678554 53.36780504 -19.76678554 53.36780504 -22.0703125 51.4921875 C-26.90471817 50.65629205 -30.14025242 52.96975512 -34.0078125 55.5546875 Z " fill="#324A8B" transform="translate(965.0703125,93.5078125)"/>
<path d="M0 0 C7.09596505 6.75481288 8.92009012 15.25310555 9.23577881 24.68463135 C9.29130948 28.01037324 9.33097004 31.33526539 9.35479546 34.6613369 C9.37137965 36.89395788 9.39461711 39.12642214 9.41969299 41.35896301 C9.49002846 47.70073501 9.5507046 54.04256545 9.60180664 60.38452148 C9.63363974 64.27771229 9.6749079 68.17071083 9.72200203 72.0637455 C9.73797402 73.54164492 9.75031767 75.01958831 9.75890923 76.49754906 C9.77109872 78.562611 9.79525768 80.62722139 9.82202148 82.69213867 C9.83748268 84.45130867 9.83748268 84.45130867 9.85325623 86.24601746 C10.12500971 89.37511184 10.71793119 91.58004529 12.125 94.375 C13.77609085 95.65546846 13.77609085 95.65546846 15.6875 96.4375 C19.125 98.375 19.125 98.375 20.125 100.375 C20.125 102.65890165 19.9337131 104.22801041 19.125 106.375 C17.19921875 107.82421875 17.19921875 107.82421875 14.8125 109.0625 C14.03261719 109.47886719 13.25273438 109.89523437 12.44921875 110.32421875 C5.60676094 113.41769967 -3.0710154 113.61751934 -10.1875 111.25 C-13.75031936 109.71570098 -16.33975544 107.43380282 -19.0390625 104.6796875 C-21.67850645 102.80399755 -23.65135447 102.49573579 -26.875 102.375 C-29.70355652 103.64766583 -29.70355652 103.64766583 -32.3125 105.625 C-33.27285156 106.27082031 -34.23320313 106.91664063 -35.22265625 107.58203125 C-36.09792969 108.17371094 -36.97320313 108.76539063 -37.875 109.375 C-44.74078785 113.3164708 -52.6149106 113.55339665 -60.28125 111.8359375 C-70.18344835 108.37016808 -77.06772058 101.4807592 -81.875 92.375 C-84.99890689 84.49085404 -85.07136026 75.40587597 -81.9453125 67.4921875 C-74.57750106 52.91790356 -55.01658764 48.02866335 -40.92456055 42.23120117 C-31.12560999 38.90999451 -31.12560999 38.90999451 -23.875 32.375 C-23.21332053 23.6972364 -22.92115152 14.91413815 -27.875 7.375 C-31.48220576 4.3689952 -34.34405956 4.1925843 -38.875 4.4375 C-43.44391717 5.09608266 -46.42185342 6.16850675 -49.875 9.375 C-53.76929503 15.44551873 -55.17214547 22.02490947 -56.75 28.984375 C-57.93291244 32.54954165 -58.95057754 34.0812259 -61.875 36.375 C-66.44068492 37.9314835 -69.74097713 37.22804438 -74.0390625 35.3671875 C-77.07514069 33.72641333 -78.31610981 32.49278038 -79.875 29.375 C-81.15479473 21.00300951 -79.26554851 14.39383625 -74.58984375 7.47265625 C-66.870072 -2.35446267 -56.18025293 -5.8765257 -44.3125 -8.375 C-29.74869438 -9.43418586 -12.14423206 -9.24528634 0 0 Z M-46.4765625 60.86328125 C-51.82194335 66.64166781 -53.15655743 72.62043916 -52.875 80.375 C-51.33132361 85.27844265 -48.42228985 88.9045027 -43.875 91.375 C-39.45690358 92.66559089 -36.00525327 92.74450588 -31.625 91.3125 C-27.83077892 88.63929878 -24.97628471 85.57756941 -22.875 81.375 C-22.66402352 77.09164559 -22.68920258 72.80456562 -22.68969727 68.51660156 C-22.68750848 66.38326135 -22.66934081 64.25043634 -22.65039062 62.1171875 C-22.64745706 60.76562677 -22.64547202 59.41406358 -22.64453125 58.0625 C-22.63836792 56.21205078 -22.63836792 56.21205078 -22.63208008 54.32421875 C-22.56495159 51.25393228 -22.56495159 51.25393228 -24.875 49.375 C-32.75877414 49.375 -40.78261611 55.57207741 -46.4765625 60.86328125 Z " fill="#324A8B" transform="translate(747.875,327.625)"/>
<path d="M0 0 C0.87787642 2.40168197 1.57571344 4.65667538 2.1875 7.125 C2.36112061 7.80135498 2.53474121 8.47770996 2.71362305 9.17456055 C5.4076403 20.18471941 5.4076403 20.18471941 3 25 C-0.1875 25.5 -0.1875 25.5 -4 25 C-5.5708805 23.23103193 -6.56636365 21.37789955 -7.6953125 19.30078125 C-10.61422193 14.15336312 -14.24845569 10.05753619 -19.3125 7 C-26.26650252 5.11416881 -33.33921996 5.21722148 -40.140625 7.76171875 C-43.1694334 9.77880333 -43.9377831 12.20356727 -44.76171875 15.65625 C-45.26707227 20.62694038 -43.96704223 23.80541842 -40.875 27.625 C-34.34925097 33.01583615 -27.56388155 36.12965499 -19.625 38.9375 C-6.80279539 43.67609252 4.2137572 48.57543308 10.4375 61.5 C13.77892033 70.88779998 13.2970571 82.42407332 9.3828125 91.5390625 C3.00303048 102.89291186 -7.13527519 108.54398962 -19.265625 112.25390625 C-34.20612921 116.33052954 -51.44478399 114.60922507 -65.046875 107.18359375 C-69.92595915 104.22686875 -69.92595915 104.22686875 -70.9140625 101.19921875 C-75.37237442 79.17711754 -75.37237442 79.17711754 -72.5078125 74.6328125 C-72.01023437 74.09398437 -71.51265625 73.55515625 -71 73 C-67.78125 72.98828125 -67.78125 72.98828125 -64 74 C-61.95754985 76.46542024 -60.77661574 79.26778758 -59.5 82.1875 C-55.89683697 90.22269057 -51.63041546 96.00934035 -43.1875 99.375 C-37.44526546 101.45197845 -31.81214639 102.27549259 -25.921875 100.3046875 C-22.88511554 98.78630777 -21.03689844 97.0511817 -19.0625 94.3125 C-17.20048638 88.5073987 -17.21624267 84.01050792 -19.4375 78.3125 C-23.77725064 71.86191827 -30.91521715 68.99469491 -37.76245117 65.88256836 C-51.68773064 59.54245927 -65.138707 52.11203511 -71.15234375 37.12890625 C-73.28788167 29.24611421 -73.20928214 20.31246727 -69.3125 13.01953125 C-62.28979136 2.21375635 -52.44767821 -3.16142473 -40 -6 C-27.60378273 -8.52126453 -10.75015125 -7.1667675 0 0 Z " fill="#324A8B" transform="translate(1074,94)"/>
<path d="M0 0 C3.77702297 2.63513231 6.60374735 5.7074947 8.6875 9.875 C9.70077723 17.26294539 8.65411969 22.58412637 4.4609375 28.765625 C1.7135639 32.0334262 -0.27220413 33.38646994 -4.3125 34.875 C-9.84163279 34.875 -12.91492668 33.07323514 -17.3125 29.875 C-22.40432285 28.17772572 -27.32643666 27.88196833 -32.1875 30.3125 C-37.84095988 37.1299075 -37.75839392 45.5552035 -37.7109375 54.03125 C-37.71524277 55.74471619 -37.71524277 55.74471619 -37.71963501 57.49279785 C-37.7216671 59.89640807 -37.71619746 62.30003515 -37.70361328 64.70361328 C-37.68754834 68.36398613 -37.70349217 72.02325488 -37.72265625 75.68359375 C-37.72067367 78.02864825 -37.71682968 80.37370207 -37.7109375 82.71875 C-37.71701019 83.80337524 -37.72308289 84.88800049 -37.7293396 86.00549316 C-37.67157988 92.30505491 -37.22029228 98.17424227 -34.3125 103.875 C-31.94135741 105.95311937 -31.94135741 105.95311937 -29.125 106.9375 C-28.22394531 107.32035156 -27.32289063 107.70320313 -26.39453125 108.09765625 C-25.70746094 108.35417969 -25.02039063 108.61070312 -24.3125 108.875 C-24.1875 111.75 -24.1875 111.75 -24.3125 114.875 C-27.72386192 118.28636192 -32.55949627 117.17859403 -37.16601562 117.19726562 C-37.87798096 117.19509033 -38.58994629 117.19291504 -39.32348633 117.19067383 C-41.47464755 117.18753697 -43.6244019 117.21088287 -45.77539062 117.23632812 C-47.15624828 117.23860367 -48.5371096 117.23930343 -49.91796875 117.23828125 C-51.79198364 117.24275269 -51.79198364 117.24275269 -53.70385742 117.24731445 C-58.39394003 116.7634246 -62.40643114 115.51609965 -66.0546875 112.375 C-69.91117372 107.26848032 -70.46570526 103.60171871 -70.50195312 97.37768555 C-70.51024643 96.61635315 -70.51853973 95.85502075 -70.52708435 95.07061768 C-70.54447829 93.4173407 -70.55964691 91.76403916 -70.57286072 90.1107235 C-70.59391021 87.49178572 -70.62093364 84.87297009 -70.64953613 82.25410461 C-70.70922185 76.69028361 -70.76134839 71.12640513 -70.8125 65.5625 C-70.8718066 59.12488613 -70.93422142 52.68733193 -71.00437927 46.24982643 C-71.03086547 43.67411344 -71.05173655 41.0983942 -71.0723877 38.52262878 C-71.08900121 36.93524899 -71.10587396 35.34787189 -71.12304688 33.76049805 C-71.12723129 33.04807449 -71.13141571 32.33565094 -71.13572693 31.60163879 C-71.18569755 27.59717322 -71.54713121 23.80588836 -72.3125 19.875 C-73.08335937 19.68164062 -73.85421875 19.48828125 -74.6484375 19.2890625 C-75.65132812 19.02867188 -76.65421875 18.76828125 -77.6875 18.5 C-79.18410156 18.11714844 -79.18410156 18.11714844 -80.7109375 17.7265625 C-83.3125 16.875 -83.3125 16.875 -85.3125 14.875 C-85.625 11.875 -85.625 11.875 -85.3125 8.875 C-81.77971409 6.51980939 -78.48027495 5.9270602 -74.390625 5.1484375 C-73.22330841 4.91962387 -73.22330841 4.91962387 -72.03240967 4.68618774 C-70.38553682 4.3652423 -68.73799187 4.04772934 -67.08984375 3.73339844 C-64.58388851 3.25409092 -62.08101099 2.76067968 -59.578125 2.265625 C-57.97412404 1.95487261 -56.36996203 1.64495016 -54.765625 1.3359375 C-54.02370911 1.18909515 -53.28179321 1.04225281 -52.51739502 0.89096069 C-48.06414438 0.05306487 -43.86736468 -0.35589514 -39.3125 -0.125 C-37.30072819 1.88677181 -37.87586065 5.79977333 -37.69140625 8.52734375 C-37.51764276 11.06012773 -37.51764276 11.06012773 -35.3125 12.875 C-34.47847656 12.19953125 -33.64445313 11.5240625 -32.78515625 10.828125 C-22.80388861 2.86037386 -13.35634609 -4.53611754 0 0 Z " fill="#324A8B" transform="translate(868.3125,90.125)"/>
<path d="M0 0 C2.11653807 2.11653807 1.15425857 6.88672221 1.15771484 9.81494141 C1.16279556 10.74018616 1.16787628 11.66543091 1.17311096 12.61871338 C1.18384151 14.63599311 1.19245107 16.65328494 1.19923019 18.67058182 C1.21098739 21.8651177 1.23043397 25.05951642 1.25234985 28.2539978 C1.3140586 37.33969543 1.36795384 46.42538138 1.40136719 55.51123047 C1.42233595 61.0627242 1.45766377 66.61397207 1.50212479 72.16532516 C1.51627475 74.28073604 1.52500495 76.39619046 1.52817917 78.51164627 C1.53309852 81.47758852 1.55628551 84.4428815 1.58349609 87.40869141 C1.58048996 88.27962433 1.57748383 89.15055725 1.5743866 90.04788208 C1.65823728 96.21545538 2.44788872 101.44788872 7 106 C8.175625 106.433125 9.35125 106.86625 10.5625 107.3125 C14 109 14 109 15.125 111.5 C15 114 15 114 13.92114258 115.63134766 C11.03906601 117.68458456 8.64266131 117.3889074 5.13671875 117.3984375 C4.46711624 117.40130768 3.79751373 117.40417786 3.10762024 117.40713501 C1.69128575 117.40917475 0.27492304 117.403651 -1.14135742 117.39111328 C-3.29476091 117.37513165 -5.44626615 117.39092337 -7.59960938 117.41015625 C-8.97917077 117.40817232 -10.35873099 117.40432555 -11.73828125 117.3984375 C-12.98649658 117.39505371 -14.23471191 117.39166992 -15.52075195 117.38818359 C-20.83134828 116.79567443 -24.00121727 114.99878273 -27.75 111.25 C-31.68358942 105.56814862 -32.29534384 99.87326186 -32.25537109 93.10864258 C-32.25899155 92.35326706 -32.262612 91.59789154 -32.26634216 90.81962585 C-32.27319582 89.19205234 -32.27574922 87.56445605 -32.27439499 85.93686867 C-32.27342452 83.36007403 -32.28643049 80.78369052 -32.30337524 78.20695496 C-32.34950885 70.88547857 -32.3742736 63.56404858 -32.38085938 56.24243164 C-32.38586912 51.75380512 -32.41008131 47.26561472 -32.44618607 42.77713585 C-32.45598707 41.0695323 -32.45831435 39.36186883 -32.45301437 37.65424538 C-32.44595639 35.27007812 -32.46319472 32.8872175 -32.48583984 30.50317383 C-32.47766739 29.79919464 -32.46949493 29.09521545 -32.46107483 28.36990356 C-32.51807411 24.99991534 -32.77811756 23.28296594 -34.88467407 20.59648132 C-37.1531913 18.88438328 -39.03158314 18.04953437 -41.75 17.25 C-42.54921875 17.00765625 -43.3484375 16.7653125 -44.171875 16.515625 C-44.77515625 16.34546875 -45.3784375 16.1753125 -46 16 C-46.75 13.75 -46.75 13.75 -47 11 C-43.86632761 6.66495756 -39.98129012 5.96751751 -34.98046875 5.078125 C-34.20367264 4.92841248 -33.42687653 4.77869995 -32.62654114 4.62445068 C-30.98637704 4.31147815 -29.34476965 4.00598816 -27.7019043 3.70751953 C-25.20336763 3.25288726 -22.71016742 2.77504829 -20.21679688 2.29296875 C-18.61744761 1.99080745 -17.01784518 1.68998252 -15.41796875 1.390625 C-14.67918991 1.25005676 -13.94041107 1.10948853 -13.179245 0.96466064 C-8.73950954 0.16601587 -4.53220988 -0.22302102 0 0 Z " fill="#324A8B" transform="translate(1139,90)"/>
<path d="M0 0 C1.27247733 3.39327288 0.73724234 6.24107997 0.26879883 9.76220703 C-0.16848759 13.40268599 -0.3425546 17.02391721 -0.4375 20.6875 C-0.48326172 21.42033203 -0.52902344 22.15316406 -0.57617188 22.90820312 C-0.66268013 27.07940544 -0.2537688 28.7229181 2.59375 31.83203125 C5.82542342 34.0939645 9.2540617 35.59221468 12.9375 37 C13.58066162 37.24782227 14.22382324 37.49564453 14.88647461 37.75097656 C21.84660584 40.39618115 28.91564521 42.71312056 36 45 C38.00068178 45.66461784 40.0009147 46.33059549 42 47 C42 47.33 42 47.66 42 48 C39.9163691 47.85848172 37.83310062 47.71162064 35.75 47.5625 C34.58984375 47.48128906 33.4296875 47.40007812 32.234375 47.31640625 C29 47 29 47 27.015625 46.47265625 C24.00612543 45.76694027 21.08464993 45.86846472 18 45.875 C16.783125 45.87242187 15.56625 45.86984375 14.3125 45.8671875 C11.65249989 45.97383845 9.51771029 46.20692126 7 47 C5.7475216 55.76734878 9.56537884 61.9229366 13.59570312 69.375 C15.19709068 72.36841428 16.74894062 75.38485231 18.296875 78.40625 C24.06829886 89.65674264 29.85960031 100.87786782 36.24365234 111.79638672 C37.22028996 113.49902044 38.11960439 115.24566645 39 117 C38.67 117.66 38.34 118.32 38 119 C37.49251221 118.24605957 36.98502441 117.49211914 36.4621582 116.71533203 C18.52759067 89.7795187 18.52759067 89.7795187 -1 64 C-1.60642334 63.25242432 -1.60642334 63.25242432 -2.22509766 62.48974609 C-7.73399224 55.72801906 -13.23245613 49.54092654 -20 44 C-20.598125 43.44183594 -21.19625 42.88367188 -21.8125 42.30859375 C-30.28667909 34.41701448 -40.5732401 28.89563444 -51 24 C-46.86827069 22.29364945 -43.15758485 23.81694083 -39.0625 24.9375 C-30.51887305 27.1110075 -20.10894101 29.61370781 -12 25 C-10.85193191 22.87677619 -10.85193191 22.87677619 -10 20 C-9.30745604 18.45576249 -8.59571423 16.9200732 -7.87109375 15.390625 C-7.27844727 14.13572266 -7.27844727 14.13572266 -6.67382812 12.85546875 C-6.26583984 11.99566406 -5.85785156 11.13585937 -5.4375 10.25 C-5.02564453 9.37472656 -4.61378906 8.49945313 -4.18945312 7.59765625 C-3.79564453 6.76621094 -3.40183594 5.93476563 -2.99609375 5.078125 C-2.63700928 4.31918945 -2.2779248 3.56025391 -1.90795898 2.77832031 C-1 1 -1 1 0 0 Z " fill="#E22F76" transform="translate(147,184)"/>
<path d="M0 0 C2.12212706 2.70001918 3.80576064 5.3716042 5.33984375 8.44140625 C5.76330078 9.27220703 6.18675781 10.10300781 6.62304688 10.95898438 C7.50013027 12.69620899 8.37252405 14.43580916 9.24023438 16.17773438 C9.66498047 17.00724609 10.08972656 17.83675781 10.52734375 18.69140625 C10.90624756 19.44623291 11.28515137 20.20105957 11.67553711 20.97875977 C13.18680875 23.28508565 14.67611723 24.5343807 17 26 C24.9778412 27.45170553 33.04161538 25.33455726 40.76806641 23.42358398 C44.60232519 22.47951435 48.01341812 21.74638048 52 22 C49.37134026 23.75243982 46.72171071 25.1839115 43.91088867 26.61303711 C36.57353657 30.3756654 30.1966131 34.50801849 24 40 C23.14664063 40.74507812 22.29328125 41.49015625 21.4140625 42.2578125 C-2.27315394 63.24198322 -19.76738222 90.66941631 -37 117 C-37.33 116.34 -37.66 115.68 -38 115 C-36.99047852 112.67871094 -36.99047852 112.67871094 -35.37890625 109.734375 C-34.78029785 108.6306958 -34.18168945 107.5270166 -33.56494141 106.38989258 C-33.2389093 105.79753815 -32.9128772 105.20518372 -32.57696533 104.59487915 C-31.55510958 102.73655998 -30.54445261 100.87254969 -29.53662109 99.0065918 C-26.25159823 92.93210153 -22.93395465 86.87592066 -19.59770203 80.82943726 C-18.12032157 78.14494133 -16.65475493 75.45410129 -15.19113159 72.76208496 C-14.48621277 71.47303288 -13.77562114 70.18706513 -13.05911255 68.90441895 C-7.42985629 59.05201962 -7.42985629 59.05201962 -6 48 C-7.43230179 45.76818606 -7.43230179 45.76818606 -10 45 C-17.68032141 43.995401 -25.46260539 45.18535421 -33.02734375 46.5625 C-36.06187935 47.00910708 -38.93747105 47.07302603 -42 47 C-38.88552519 44.92368346 -36.22612496 43.96268761 -32.6796875 42.79296875 C-31.40877249 42.36677995 -30.13794192 41.94033927 -28.8671875 41.51367188 C-26.88067797 40.85223344 -24.89335451 40.19353252 -22.90429688 39.53979492 C-9.33826185 35.7102958 -9.33826185 35.7102958 1 27 C1.95090542 18.18397853 0.62060277 8.8325073 0 0 Z " fill="#E12E75" transform="translate(254,185)"/>
<path d="M0 0 C5.1356498 2.94057368 7.719554 6.78186225 9.625 12.3125 C10.52783221 19.4301772 9.98576331 24.57465354 5.625 30.3125 C1.00002797 35.26782718 -3.57994003 37.05230625 -10.375 37.3125 C-16.40133936 36.68382078 -20.3661161 34.81594913 -24.4375 30.3125 C-28.52054111 25.23992187 -28.78032363 20.75970512 -28.71875 14.39453125 C-28.2018687 9.76022054 -26.51655954 6.70767503 -23.375 3.3125 C-16.39062798 -2.13531018 -8.25267936 -3.83989584 0 0 Z " fill="#324A8B" transform="translate(1130.375,39.6875)"/>
<path d="M0 0 C26.4 0 52.8 0 80 0 C76.9806859 2.01287607 75.12308011 2.57027814 71.6328125 3.33203125 C70.05693359 3.69458008 70.05693359 3.69458008 68.44921875 4.06445312 C66.24299847 4.5609175 64.03464286 5.04799134 61.82421875 5.52539062 C53.74941064 7.40514275 53.74941064 7.40514275 48 13 C44.65632145 18.98342477 44.09222077 26.63090967 43.08935547 33.32324219 C42.78922286 35.22650133 42.40170506 37.11556162 42 39 C41.01 39.495 41.01 39.495 40 40 C39.77449463 38.81241089 39.77449463 38.81241089 39.54443359 37.60083008 C38.84605506 33.99940336 38.11099377 30.40641981 37.375 26.8125 C37.13910156 25.56662109 36.90320313 24.32074219 36.66015625 23.03710938 C35.3766952 15.75771625 35.3766952 15.75771625 31.37109375 9.8046875 C27.21713637 7.58090035 23.26135108 6.36466653 18.6875 5.3125 C17.88376953 5.11333984 17.08003906 4.91417969 16.25195312 4.70898438 C10.85486798 3.38467949 5.42752784 2.19220521 0 1 C0 0.67 0 0.34 0 0 Z " fill="#E23278" transform="translate(160,169)"/>
<path d="M0 0 C-0.66 0.639375 -1.32 1.27875 -2 1.9375 C-4.25557366 5.39134717 -4.81959793 7.20915141 -4.65625 11.265625 C-2.67196257 19.53348928 3.31125726 27.04080751 8 34 C7.505 34.99 7.505 34.99 7 36 C2.9470728 32.04181655 -1.00832798 28.06127647 -4.6875 23.75 C-8.0705473 19.81980837 -11.68709048 16.87527302 -16 14 C-18.6681965 13.90290132 -18.6681965 13.90290132 -21.6875 14.25 C-22.82960938 14.35699219 -23.97171875 14.46398437 -25.1484375 14.57421875 C-31.77581289 15.30685964 -38.38988185 16.12600492 -45 17 C-42.94322153 14.94322153 -41.70001885 14.33585067 -39.04101562 13.28833008 C-38.22677124 12.96492142 -37.41252686 12.64151276 -36.5736084 12.30830383 C-35.69338013 11.96550888 -34.81315186 11.62271393 -33.90625 11.26953125 C-33.0037854 10.91485275 -32.1013208 10.56017426 -31.17150879 10.19474792 C-29.2626915 9.44655434 -27.35278783 8.70112738 -25.44189453 7.95825195 C-22.5082038 6.81569506 -19.58019901 5.6593686 -16.65234375 4.50195312 C-14.79980866 3.77780234 -12.94695454 3.05446709 -11.09375 2.33203125 C-10.21352173 1.9831636 -9.33329346 1.63429596 -8.4263916 1.27485657 C-7.61214722 0.96090439 -6.79790283 0.64695221 -5.95898438 0.32348633 C-5.24109741 0.04305984 -4.52321045 -0.23736664 -3.78356934 -0.52629089 C-2 -1 -2 -1 0 0 Z " fill="#E23479" transform="translate(303,148)"/>
<path d="M0 0 C5.99319103 1.94223324 11.88968571 4.05451564 17.75390625 6.35546875 C18.93339088 6.81521843 18.93339088 6.81521843 20.13670349 7.28425598 C22.61278003 8.2499414 25.08765529 9.21866264 27.5625 10.1875 C29.25578036 10.84850972 30.94913907 11.5093188 32.64257812 12.16992188 C36.76262667 13.77763331 40.88160186 15.38806577 45 17 C45 17.33 45 17.66 45 18 C39.52771383 17.60466374 34.17817389 17.11410967 28.8125 15.9375 C20.89528118 14.24299016 20.89528118 14.24299016 13.3203125 16.4765625 C8.77163016 19.67859546 5.00109941 23.78849501 1.125 27.75 C0.34125 28.54277344 -0.4425 29.33554688 -1.25 30.15234375 C-3.17130714 32.09708147 -5.08776547 34.04634753 -7 36 C-7 32.58246785 -6.37442538 31.67720182 -4.55859375 28.8671875 C-3.80739258 27.65675781 -3.80739258 27.65675781 -3.04101562 26.421875 C-1.98143031 24.73892829 -0.90868257 23.06418924 0.17773438 21.3984375 C3.31610075 16.27986319 4.60486419 12.90678352 3.5625 6.9206543 C2.79457563 4.29857921 1.62271152 2.18713292 0 0 Z " fill="#E23278" transform="translate(99,147)"/>
<path d="M0 0 C0.99 0 1.98 0 3 0 C2.39098881 3.01883061 1.44445623 5.13219085 -0.28515625 7.671875 C-0.73310547 8.33574219 -1.18105469 8.99960937 -1.64257812 9.68359375 C-2.11115234 10.36550781 -2.57972656 11.04742187 -3.0625 11.75 C-3.53494141 12.44738281 -4.00738281 13.14476562 -4.49414062 13.86328125 C-5.65757281 15.57904993 -6.82809974 17.29000398 -8 19 C-8.33 18.34 -8.66 17.68 -9 17 C-8.28735352 15.21240234 -8.28735352 15.21240234 -7.12890625 13.0859375 C-6.71962891 12.32539063 -6.31035156 11.56484375 -5.88867188 10.78125 C-5.45103516 9.9871875 -5.01339844 9.193125 -4.5625 8.375 C-4.12873047 7.57320313 -3.69496094 6.77140625 -3.24804688 5.9453125 C-2.17243012 3.95955849 -1.08952787 1.9781454 0 0 Z " fill="#E54484" transform="translate(225,283)"/>
<path d="M0 0 C3.65392651 1.2179755 3.95831699 2.14396506 5.75 5.4375 C6.19859375 6.24058594 6.6471875 7.04367187 7.109375 7.87109375 C7.40328125 8.57363281 7.6971875 9.27617187 8 10 C7.67 10.66 7.34 11.32 7 12 C5.82767315 10.3790787 4.6622923 8.75313167 3.5 7.125 C2.8503125 6.22007812 2.200625 5.31515625 1.53125 4.3828125 C0 2 0 2 0 0 Z " fill="#E7518D" transform="translate(178,291)"/>
<path d="M0 0 C0 0.66 0 1.32 0 2 C-3.3 2.33 -6.6 2.66 -10 3 C-6.84439813 -0.15560187 -4.30999015 -1.43666338 0 0 Z " fill="#E54987" transform="translate(268,162)"/>
</svg>
