<svg width="170" height="28" viewBox="0 0 170 28" fill="none" xmlns="http://www.w3.org/2000/svg">
<g clip-path="url(#clip0_3869_6942)">
<path d="M41.5594 7.87025L41.5902 10.1876V12.0614H47.9991C48.1565 12.6553 48.2387 13.3037 48.2387 14.0068C48.2387 14.7099 48.16 15.3583 47.9991 15.9522H41.5902V24.1229C40.9568 24.2424 40.1695 24.3004 39.2211 24.3004C38.2728 24.3004 37.482 24.2424 36.8521 24.1229V4.0067L37.0609 3.82922H49.817C49.9368 4.32411 49.995 4.94528 49.995 5.68589C49.995 6.42993 49.7896 6.97943 49.3822 7.33437C48.9714 7.68935 48.3312 7.87025 47.4513 7.87025H41.5594Z" fill="#97134B"/>
<path d="M62.035 10.6041C63.4661 12.0307 64.1815 14.0717 64.1815 16.727C64.1815 17.9147 64.0275 18.9966 63.7194 19.9659C63.4113 20.9386 62.9628 21.7646 62.3774 22.4472C61.7919 23.1298 61.0696 23.6554 60.2171 24.024C59.3647 24.3892 58.3787 24.5735 57.266 24.5735C56.1534 24.5735 55.1742 24.3858 54.332 24.0103C53.4864 23.6349 52.7709 23.1025 52.1855 22.4199C51.6 21.7373 51.155 20.9079 50.8571 19.9386C50.5593 18.9694 50.4121 17.8977 50.4121 16.7304C50.4121 15.5427 50.5593 14.4676 50.8571 13.5052C51.155 12.5427 51.5932 11.7167 52.1683 11.0238C52.7435 10.3311 53.459 9.79521 54.3149 9.41975C55.1674 9.04436 56.1534 8.85663 57.266 8.85663C59.2345 8.84979 60.8231 9.4368 62.035 10.6041ZM57.2831 12.3277C56.8415 12.3277 56.4889 12.4301 56.2184 12.6382C55.948 12.8464 55.7322 13.1297 55.5714 13.4846C55.4105 13.8396 55.3009 14.2526 55.2427 14.7167C55.1811 15.1809 55.1537 15.6826 55.1537 16.2184C55.1537 17.0513 55.1777 17.7679 55.229 18.3721C55.2769 18.9762 55.3797 19.4812 55.5303 19.8874C55.6809 20.2936 55.8898 20.5974 56.1602 20.7953C56.4307 20.9932 56.7867 21.0922 57.2249 21.0922C58.1048 21.0922 58.6868 20.71 58.9675 19.9489C59.2482 19.1877 59.3886 18.1024 59.3886 16.6963C59.3886 15.2696 59.2482 14.1843 58.9675 13.4437C58.6834 12.6997 58.1219 12.3277 57.2831 12.3277Z" fill="#97134B"/>
<path d="M65.9731 11.4369C66.0724 11.041 66.2607 10.6007 66.538 10.1161C66.8153 9.63136 67.0926 9.27986 67.3734 9.0614C69.2015 9.20136 70.4717 10.1024 71.1872 11.7645C71.9404 9.98293 73.1831 9.08875 74.912 9.08875C75.4289 9.08875 76.0863 9.16725 76.8803 9.32764C76.8803 9.94199 76.7744 10.669 76.5693 11.512C76.3605 12.3549 76.0757 13.0717 75.72 13.6655C75.381 13.5461 74.8743 13.4471 74.1999 13.3686C73.207 13.3686 72.3922 13.8738 71.7555 14.884V24.1264C71.1016 24.2458 70.3313 24.3039 69.4446 24.3039C68.5614 24.3039 67.7807 24.2458 67.1029 24.1264V14.5256C67.1063 13.041 66.7263 12.0103 65.9731 11.4369Z" fill="#97134B"/>
<path d="M88.5374 9.2661C88.6568 9.81555 88.7154 10.3651 88.7154 10.9146C88.7154 11.464 88.6568 12.0033 88.5374 12.5357L84.9908 12.4778V19.3139C84.9908 20.2457 85.425 20.7099 86.3017 20.7099H87.9725C88.2294 21.43 88.3593 22.0887 88.3593 22.686C88.3593 23.2867 88.318 23.7167 88.2391 23.9727C86.7675 24.1706 85.4183 24.273 84.1863 24.273C81.6832 24.273 80.4301 22.8942 80.4301 20.1331V12.505L78.1058 12.5357C77.9653 12.0443 77.897 11.5084 77.897 10.9316C77.897 10.3514 77.9653 9.7985 78.1058 9.2661L80.4301 9.32409V7.60054C80.4301 6.5903 80.6254 5.87357 81.0123 5.44694C81.3992 5.02032 82.0498 4.80872 82.964 4.80872H84.782L84.9908 5.0169V9.32755L88.5374 9.2661Z" fill="#97134B"/>
<path d="M102.4 18.2117H94.649C94.6903 19.0957 94.9157 19.7817 95.3303 20.2698C95.7443 20.7612 96.4294 21.0035 97.3812 21.0035C97.8567 21.0035 98.4044 20.9353 99.0279 20.8022C99.6507 20.669 100.37 20.4472 101.181 20.14C101.835 20.8124 102.239 21.7237 102.4 22.8738C100.811 24.0035 98.8634 24.5667 96.5556 24.5667C95.3026 24.5667 94.2553 24.3688 93.4095 23.9729C92.5643 23.5769 91.8792 23.0206 91.3518 22.3073C90.8252 21.594 90.4519 20.751 90.2363 19.7817C90.0169 18.8124 89.9072 17.751 89.9072 16.6008C89.9072 15.4915 90.0409 14.4677 90.3076 13.5257C90.5781 12.5836 90.9822 11.768 91.5299 11.0751C92.0783 10.3822 92.7732 9.83618 93.6153 9.44028C94.4604 9.04438 95.4498 8.84644 96.5796 8.84644C97.5352 8.84644 98.3946 9.00682 99.1579 9.32084C99.9211 9.63823 100.575 10.0751 101.11 10.628C101.647 11.1843 102.058 11.8465 102.348 12.6178C102.636 13.3891 102.78 14.2321 102.78 15.1434C102.787 16.3584 102.656 17.3789 102.4 18.2117ZM94.6182 15.0035H98.5246V14.6758C98.5246 13.942 98.3638 13.338 98.0385 12.8636C97.7132 12.3892 97.2234 12.1502 96.5729 12.1502C95.9433 12.1502 95.4738 12.372 95.1696 12.8192C94.8616 13.2628 94.676 13.9933 94.6182 15.0035Z" fill="#97134B"/>
<path d="M106.302 3.76801C107.911 3.72706 109.287 3.69976 110.431 3.67928C111.574 3.6588 112.491 3.64856 113.186 3.64856C115.354 3.64856 117.055 4.09907 118.298 5.0001C119.54 5.90113 120.16 7.25268 120.16 9.05473C120.16 9.92848 119.914 10.7373 119.417 11.4916C118.921 12.2459 118.288 12.7886 117.514 13.1265C118.01 13.2869 118.48 13.5394 118.928 13.8842C119.373 14.2323 119.757 14.6384 120.074 15.1026C120.393 15.5668 120.646 16.0719 120.832 16.6179C121.019 17.164 121.116 17.7238 121.116 18.2972C121.116 20.3381 120.465 21.8466 119.164 22.8296C117.863 23.8092 116.018 24.3006 113.635 24.3006C112.899 24.3006 111.927 24.2904 110.715 24.2699C109.503 24.2494 108.031 24.2187 106.302 24.1812L106.093 23.9729V3.97279L106.302 3.76801ZM110.834 7.00695V11.792H112.937C113.885 11.792 114.549 11.5599 114.936 11.0923C115.319 10.6281 115.514 10.0581 115.514 9.38242C115.514 8.71007 115.316 8.15033 114.922 7.7032C114.529 7.25951 113.865 7.03425 112.937 7.03425C112.481 7.03425 112.084 7.03425 111.739 7.03425C111.389 7.03767 111.091 7.02743 110.834 7.00695ZM113.293 15.1811H110.831V20.9764C111.344 20.9558 111.924 20.9558 112.567 20.9764C113.21 20.9969 113.806 20.9456 114.361 20.8262C114.916 20.7067 115.378 20.42 115.754 19.9661C116.13 19.5122 116.319 18.8773 116.319 18.065C116.319 17.2938 116.076 16.6179 115.593 16.0445C115.107 15.4677 114.34 15.1811 113.293 15.1811Z" fill="#97134B"/>
<path d="M136.587 21.9866C136.488 22.403 136.3 22.8501 136.022 23.3245C135.745 23.7989 135.457 24.147 135.16 24.3655C133.769 24.3245 132.694 23.7989 131.942 22.7886C130.647 23.9764 129.247 24.5702 127.737 24.5702C126.963 24.5702 126.286 24.4473 125.711 24.1982C125.136 23.9491 124.646 23.618 124.249 23.2017C123.852 22.7853 123.553 22.304 123.355 21.7613C123.157 21.2153 123.058 20.6453 123.058 20.0515C123.058 19.1982 123.212 18.4507 123.52 17.8091C123.828 17.164 124.249 16.6316 124.786 16.205C125.324 15.7784 125.947 15.4575 126.666 15.2391C127.381 15.0207 128.145 14.9115 128.959 14.9115C129.415 14.9115 129.819 14.9183 130.168 14.9251C130.517 14.9354 130.819 14.949 131.075 14.9695V14.4029C131.075 13.1402 130.428 12.5087 129.137 12.5087C128.302 12.5087 126.844 12.8364 124.755 13.4883C124.16 12.7954 123.783 11.7169 123.623 10.2493C124.098 10.0718 124.632 9.90116 125.217 9.74415C125.803 9.58722 126.406 9.44726 127.022 9.32782C127.638 9.20837 128.244 9.1162 128.84 9.04453C129.436 8.97624 129.973 8.94214 130.449 8.94214C131.144 8.94214 131.815 9.04108 132.461 9.2391C133.109 9.43705 133.674 9.74077 134.16 10.1469C134.646 10.5531 135.033 11.0786 135.324 11.7203C135.611 12.3653 135.756 13.1333 135.756 14.024V20.0583C135.752 20.9662 136.033 21.6112 136.587 21.9866ZM127.587 19.758C127.587 20.6897 128.124 21.1538 129.196 21.1538C129.754 21.1538 130.377 20.8671 131.075 20.2903V17.9149C130.678 17.8945 130.346 17.8808 130.076 17.8706C129.809 17.8603 129.603 17.8569 129.466 17.8569C128.213 17.8569 127.587 18.4883 127.587 19.758Z" fill="#97134B"/>
<path d="M152.058 14.3176V20.4099C152.058 21.717 152.298 22.6965 152.773 23.3518C152.017 24.0242 151.113 24.3621 150.062 24.3621C149.028 24.3621 148.323 24.1232 147.947 23.6488C147.57 23.1744 147.382 22.4508 147.382 21.4781V15.1504C147.382 14.478 147.292 13.9832 147.114 13.6658C146.936 13.3483 146.587 13.1913 146.07 13.1913C145.773 13.1913 145.434 13.2698 145.057 13.4303C144.68 13.5907 144.29 13.8466 143.893 14.2016V24.1266C143.554 24.1846 143.188 24.229 142.79 24.2597C142.394 24.2904 141.986 24.3041 141.568 24.3041C141.15 24.3041 140.743 24.2904 140.346 24.2597C139.949 24.229 139.579 24.1846 139.244 24.1266V9.29708L139.452 9.08892H141.212C142.424 9.08892 143.239 9.68276 143.656 10.8705C145.047 9.64182 146.43 9.02747 147.799 9.02747C149.189 9.02747 150.247 9.5087 150.973 10.4678C151.695 11.4302 152.058 12.7135 152.058 14.3176Z" fill="#97134B"/>
<path d="M166.96 18.2119L167.707 20.3825C168.103 21.6897 168.58 22.5327 169.137 22.9082C168.261 23.8775 167.22 24.3655 166.008 24.3655C165.351 24.3655 164.854 24.2119 164.519 23.9047C164.181 23.5976 163.882 23.0583 163.625 22.2836L162.732 19.7272C162.534 19.1129 162.304 18.6999 162.047 18.4951C161.787 18.287 161.442 18.1846 161.003 18.1846C160.565 18.1846 160.257 18.1948 160.079 18.2153V24.13C159.425 24.2495 158.668 24.3075 157.812 24.3075C156.957 24.3075 156.203 24.2495 155.546 24.13V2.46088L155.755 2.25269H157.542C158.476 2.25269 159.131 2.46088 159.511 2.87726C159.887 3.29366 160.075 4.01721 160.075 5.04793V14.3791H160.551C160.91 14.3791 161.188 14.2016 161.387 13.8432L162.937 10.8705C163.495 9.74078 164.368 9.17766 165.56 9.17766C166.135 9.17766 167.001 9.19817 168.155 9.23566L168.333 9.47462L166.039 13.9012C165.642 14.6555 165.135 15.2392 164.519 15.6555C165.711 16.0924 166.525 16.9457 166.96 18.2119Z" fill="#97134B"/>
<path d="M28.7862 12.5154C28.639 12.2082 28.3344 12.0136 27.9886 12.0136H25.5784C25.3593 12.0136 25.1504 12.0956 24.9895 12.2423C23.5209 13.5802 21.8159 14.1946 19.8371 14.0717C16.3588 13.8499 13.7638 11.2423 13.8014 8.0068C13.8288 5.58698 15.8281 3.61427 18.3068 3.61427C19.3065 3.62451 20.3164 4.0955 20.9463 4.83612C21.0628 4.97264 21.2271 5.1979 21.34 5.44363C21.3983 5.63135 21.3914 5.82248 21.3298 5.99996C21.1723 6.42317 20.693 6.67231 20.2479 6.54603C20.2411 6.54262 20.2342 6.53921 20.2308 6.53921C19.9501 6.43682 19.6556 6.38562 19.3578 6.38562C18.2965 6.38562 17.3345 7.05457 16.9682 8.05119C16.6053 9.04094 16.8997 10.1467 17.7042 10.8361C17.735 10.8772 17.7796 10.9147 17.8275 10.942L17.8857 10.9795C17.8925 10.9863 17.9028 10.9932 17.9096 11C17.9404 11.0307 17.9713 11.058 18.0123 11.0819C19.2962 11.7952 20.83 11.8396 22.1343 11.2082C23.6441 10.471 24.7122 8.9556 24.993 7.15013C25.2463 5.51872 24.767 3.89414 23.6407 2.56989C22.3465 1.04769 20.3677 0.126186 18.3479 0.102295H18.2554C13.9041 0.102295 10.3231 3.63133 10.2717 7.96924C10.2615 8.82932 10.3744 9.66551 10.5833 10.4676C10.4292 10.4505 10.2786 10.43 10.1245 10.4232C6.57091 10.1945 3.41441 11.6382 1.05901 14.5495C0.843331 14.8192 0.802248 15.1775 0.949461 15.4881C1.09667 15.7987 1.40137 15.9898 1.74715 15.9898H4.15731C4.37642 15.9898 4.58526 15.9079 4.74616 15.7611C6.21486 14.4233 7.92662 13.8021 9.89861 13.9317C13.3769 14.1536 15.9719 16.7612 15.9343 19.9966C15.9069 22.4165 13.9075 24.3892 11.4289 24.3858C10.4327 24.3755 9.41932 23.9045 8.78934 23.1639C8.67298 23.0274 8.50861 22.8022 8.39908 22.5564C8.34087 22.3687 8.34772 22.1741 8.40937 22.0001C8.56683 21.5769 9.05295 21.3277 9.49122 21.454C9.49805 21.4574 9.50489 21.4574 9.50827 21.4608C9.789 21.5632 10.0835 21.6144 10.3813 21.6144C11.4426 21.6144 12.4012 20.9455 12.7675 19.9489C13.1304 18.9591 12.836 17.8533 12.0314 17.1639C12.0006 17.1229 11.9595 17.0888 11.9116 17.0615L11.8535 17.0239C11.8465 17.0171 11.8363 17.0103 11.826 17.0034C11.7952 16.9727 11.761 16.9454 11.7233 16.9216C10.4361 16.2083 8.90233 16.1639 7.60139 16.7953C6.09161 17.5324 5.02346 19.0478 4.74274 20.8533C4.48939 22.4847 4.96869 24.1093 6.09503 25.4336C7.38913 26.9558 9.36448 27.8772 11.3844 27.8977H11.4769C15.8281 27.8977 19.4092 24.3687 19.4605 20.0308C19.4708 19.1707 19.3578 18.3345 19.149 17.5324C19.303 17.5496 19.4536 17.57 19.6077 17.5768C19.8474 17.5905 20.0836 17.6007 20.3198 17.6007C23.5893 17.6007 26.4787 16.1639 28.6732 13.4505C28.8924 13.1877 28.9335 12.8294 28.7862 12.5154Z" fill="#0CAFC0"/>
</g>
<defs>
<clipPath id="clip0_3869_6942">
<rect width="168.275" height="27.7955" fill="white" transform="translate(0.862305 0.102295)"/>
</clipPath>
</defs>
</svg>
