<svg width="123" height="43" viewBox="0 0 123 43" fill="none" xmlns="http://www.w3.org/2000/svg">
<g clip-path="url(#clip0_3869_6121)">
<path fill-rule="evenodd" clip-rule="evenodd" d="M21.4286 0L14.261 7.19152H7.16756V14.3087L0 21.4998L7.16756 28.6918V35.8089H14.261L21.4286 43L28.5961 35.8089H35.6896V28.6918L42.8571 21.4998L35.6896 14.3087V7.19152H28.5961L21.4286 0ZM8.9506 29.2152L1.26043 21.4998L8.9506 13.7848V8.98003H13.7389L21.4286 1.26464L29.1183 8.98003H33.9071V13.7848L41.5967 21.4998L33.9071 29.2152V34.0204H29.1183L21.4286 41.7358L13.7389 34.0204H8.9506V29.2152ZM3.78128 21.4998L21.4286 39.2065L39.0759 21.4998L21.4286 3.79393L3.78128 21.4998Z" fill="#00805F"/>
<path fill-rule="evenodd" clip-rule="evenodd" d="M33.9069 16.3141C30.9292 19.9158 26.4386 22.2155 21.4284 22.2155C17.5612 22.2159 14.4078 25.3799 14.4078 29.2601C14.4078 31.0926 15.111 32.765 16.2605 34.0204H16.2596L21.4284 39.2061L39.0758 21.5002L33.9069 16.3141ZM8.95005 26.6855C11.9277 23.0838 16.4183 20.785 21.4284 20.7846C25.2957 20.7846 28.4496 17.6205 28.4496 13.74C28.4496 11.9079 27.7464 10.235 26.5969 8.98003L21.4284 3.79393L3.7816 21.5002L8.95005 26.6864V26.6855ZM1.26074 21.5002L8.94997 13.7848V8.98003H13.7388L21.4284 1.26465L29.1182 8.98003H33.907V13.7848L41.5966 21.5002L33.907 29.2156V34.0204H29.1182L21.4284 41.7358L13.7388 34.0204H8.94997V29.2156L1.26074 21.5002Z" fill="#FAAE17"/>
<path fill-rule="evenodd" clip-rule="evenodd" d="M73.4829 31.5161L70.6306 25.7924L67.7787 31.5161H73.4829ZM47.1003 30.0852V33.6623H55.3003C56.2805 33.6623 57.0829 32.8577 57.0829 31.8737C57.0829 30.8902 56.2805 30.0852 55.3003 30.0852H47.1003ZM47.1003 24.362V27.939H55.3003C56.2805 27.939 57.0829 27.134 57.0829 26.1505C57.0829 25.1665 56.2805 24.362 55.3003 24.362H47.1003ZM80.6133 22.2154H84.1786L94.1613 32.2313V22.2154H97.7266V35.8088H94.1613L84.1786 25.7924V35.8088H80.6133V22.2154ZM105.285 29.0119L114.483 22.2154H110.562L102.718 27.939V22.2154H99.1523V35.8088H102.718V30.0852L110.562 35.8088H114.483L105.285 29.0119ZM106.996 7.19144H110.562V12.9147L118.405 7.19144H122.327L113.129 13.988L122.327 20.7844H118.405L110.562 15.0613V20.7844H106.996V7.19144ZM99.1523 15.0613L105.926 7.19144H102.362L97.37 12.9147L92.379 7.19144H88.8137L95.5877 15.0613V20.7844H99.1523V15.0613ZM80.6133 7.19144H84.1786V18.6383H94.1613V20.7844H80.6133V7.19144ZM70.6306 10.7685L73.4829 16.4921H67.7787L70.6306 10.7685ZM75.6216 20.7844H79.1877L72.4132 7.19144H68.848L62.0741 20.7844H65.6393L66.709 18.6383H74.5526L75.6216 20.7844ZM43.5347 7.19144H47.1003V12.9147H57.0829V7.19144H60.648V20.7844H57.0829V15.0613H47.1003V20.7844H43.5347V7.19144ZM43.5347 22.2154H57.2609C59.1241 22.2154 60.648 23.7448 60.648 25.6138C60.648 27.4829 59.1241 29.0119 57.2609 29.0119C59.1241 29.0119 60.648 30.5414 60.648 32.4104C60.648 34.2794 59.1241 35.8088 57.2609 35.8088H43.5347V22.2154ZM65.6393 35.8088H62.0741L68.848 22.2154H72.4132L79.1877 35.8088H75.6216L74.5526 33.6623H66.709L65.6393 35.8088Z" fill="#00805F"/>
</g>
<defs>
<clipPath id="clip0_3869_6121">
<rect width="122.328" height="43" fill="white"/>
</clipPath>
</defs>
</svg>
