<?xml version="1.0" encoding="UTF-8"?>
<svg version="1.1" xmlns="http://www.w3.org/2000/svg" width="494" height="96">
<path d="M0 0 C2.84486229 2.01221967 5.13681497 4.31943483 7.5625 6.8125 C10.27665035 6.8125 10.86185185 5.773921 12.8125 3.9375 C18.62551434 -1.10282327 24.05002652 -1.66011993 31.59765625 -1.4921875 C38.89535255 -0.74222662 43.22820293 3.01922545 48.1171875 8.2265625 C51.92995533 15.04832549 51.84863938 23.34719336 51.7578125 30.9765625 C51.7549826 31.89464691 51.75215271 32.81273132 51.74923706 33.75863647 C51.73816399 36.65173136 51.71308467 39.54450086 51.6875 42.4375 C51.67745352 44.41536007 51.66833061 46.39322506 51.66015625 48.37109375 C51.63826705 53.18501859 51.60382832 57.9987044 51.5625 62.8125 C48.41668577 62.84138514 45.27090531 62.85925923 42.125 62.875 C41.22716797 62.88337891 40.32933594 62.89175781 39.40429688 62.90039062 C38.12329102 62.90522461 38.12329102 62.90522461 36.81640625 62.91015625 C36.02564697 62.91539307 35.2348877 62.92062988 34.42016602 62.92602539 C32.5625 62.8125 32.5625 62.8125 31.5625 61.8125 C31.45164993 58.90387821 31.40085256 56.01500007 31.38671875 53.10546875 C31.36351736 51.30402481 31.33939989 49.50259249 31.31445312 47.70117188 C31.27933755 44.85042604 31.2500005 42.00010567 31.23657227 39.14916992 C31.22110291 36.40490663 31.18089491 33.66190038 31.13671875 30.91796875 C31.13862717 30.06679977 31.14053558 29.2156308 31.14250183 28.33866882 C31.04356902 23.47940735 31.04356902 23.47940735 28.74145508 19.27856445 C25.48762302 17.08929146 23.39274295 17.2077248 19.5625 17.8125 C16.82394279 19.81418538 14.89382418 21.4098636 14.09066772 24.80996704 C13.88774494 27.23523604 13.84419744 29.61705781 13.85546875 32.05078125 C13.84034744 32.93154831 13.82522614 33.81231537 13.80964661 34.71977234 C13.7667971 37.52177588 13.75793444 40.32270158 13.75 43.125 C13.7268535 45.02932547 13.70148784 46.93362536 13.67382812 48.83789062 C13.60683901 53.49667925 13.58585321 58.15247269 13.5625 62.8125 C7.2925 62.8125 1.0225 62.8125 -5.4375 62.8125 C-5.48648438 60.29496094 -5.53546875 57.77742188 -5.5859375 55.18359375 C-5.64004845 52.72772615 -5.69731605 50.27195085 -5.75488281 47.81616211 C-5.79301129 46.11799076 -5.82789146 44.41974308 -5.859375 42.72143555 C-5.90537822 40.27104533 -5.96331151 37.82117333 -6.0234375 35.37109375 C-6.03498871 34.61976669 -6.04653992 33.86843964 -6.05844116 33.09434509 C-6.18802977 28.39713584 -6.7651516 24.26119981 -8.4375 19.8125 C-12.14763399 17.33907734 -14.04810262 17.42746514 -18.4375 17.8125 C-21.6225357 19.57265131 -22.27046972 20.31140916 -23.4375 23.8125 C-23.59184158 26.75967173 -23.6950603 29.68748865 -23.75390625 32.63671875 C-23.77468735 33.49811966 -23.79546844 34.35952057 -23.81687927 35.24702454 C-23.88224909 37.99793544 -23.94120132 40.74894156 -24 43.5 C-24.04319717 45.36524421 -24.08681185 47.2304788 -24.13085938 49.09570312 C-24.23870316 53.66787258 -24.33786991 58.24011462 -24.4375 62.8125 C-30.7075 62.8125 -36.9775 62.8125 -43.4375 62.8125 C-43.4375 42.3525 -43.4375 21.8925 -43.4375 0.8125 C-37.4975 0.8125 -31.5575 0.8125 -25.4375 0.8125 C-25.1075 1.8025 -24.7775 2.7925 -24.4375 3.8125 C-23.0453125 2.8534375 -23.0453125 2.8534375 -21.625 1.875 C-15.17378091 -2.29931824 -7.21091094 -2.49104196 0 0 Z " fill="#DA0025" transform="translate(211.4375,19.1875)"/>
<path d="M0 0 C6.27 0 12.54 0 19 0 C19.33 7.59 19.66 15.18 20 23 C21.65 21.68 23.3 20.36 25 19 C31.55399042 16.81533653 39.81429882 17.01853768 46.18359375 19.82421875 C51.87679917 23.50949795 55.30962276 28.50932744 57 35 C57.26679439 38.62462735 57.2329206 42.23446511 57.1953125 45.8671875 C57.1924826 46.90191193 57.18965271 47.93663635 57.18673706 49.00271606 C57.17558048 52.29359714 57.15048397 55.58420178 57.125 58.875 C57.11496437 61.11197522 57.10583953 63.34895473 57.09765625 65.5859375 C57.0756559 71.05739748 57.041157 76.52865194 57 82 C50.73 82 44.46 82 38 82 C37.96261719 79.24269531 37.92523438 76.48539062 37.88671875 73.64453125 C37.84047543 70.96696143 37.78925201 68.28952985 37.73754883 65.61206055 C37.70434451 63.7547245 37.67629859 61.89728863 37.65356445 60.03979492 C37.61993558 57.36594202 37.56761626 54.69300007 37.51171875 52.01953125 C37.50532883 51.19226028 37.4989389 50.36498932 37.49235535 49.51264954 C37.37486944 44.88048894 36.99899773 41.76288037 34 38 C30.86128812 36.43064406 28.46144178 36.64798897 25 37 C22.2456432 38.9953629 20.33276532 40.58928618 19.52865601 43.99819946 C19.32515482 46.42327457 19.28169811 48.80470428 19.29296875 51.23828125 C19.27784744 52.11904831 19.26272614 52.99981537 19.24714661 53.90727234 C19.2042971 56.70927588 19.19543444 59.51020158 19.1875 62.3125 C19.1643535 64.21682547 19.13898784 66.12112536 19.11132812 68.02539062 C19.04433901 72.68417925 19.02335321 77.33997269 19 82 C12.73 82 6.46 82 0 82 C0 54.94 0 27.88 0 0 Z " fill="#DA0025" transform="translate(0,0)"/>
<path d="M0 0 C6.74123923 5.49533363 10.39579048 11.91909942 12.4921875 20.3046875 C12.4921875 24.5946875 12.4921875 28.8846875 12.4921875 33.3046875 C-2.3578125 33.6346875 -17.2078125 33.9646875 -32.5078125 34.3046875 C-29.47280317 39.68238314 -29.47280317 39.68238314 -24.5078125 42.3046875 C-21.09469566 42.76576753 -17.89372116 42.97657875 -14.5078125 42.3046875 C-13.79238281 41.64082031 -13.07695312 40.97695312 -12.33984375 40.29296875 C-8.10571893 37.32032112 -4.23149093 37.86961239 0.8046875 38.0546875 C1.73603516 38.07273438 2.66738281 38.09078125 3.62695312 38.109375 C5.91642947 38.15633862 8.20376934 38.22199275 10.4921875 38.3046875 C7.45711872 46.48802714 2.15996222 53.02561738 -5.5078125 57.3046875 C-14.17588803 60.96424481 -22.7610442 61.31070227 -31.65234375 58.20703125 C-40.54403122 54.19179125 -46.81516572 48.4828885 -51.0078125 39.6171875 C-54.38897245 29.83759932 -53.37476267 20.16955872 -48.98828125 10.9296875 C-44.53475794 3.0332029 -38.66280849 -1.57266709 -30.3203125 -5.0078125 C-19.4363216 -6.97049938 -9.32720985 -6.30531009 0 0 Z M-29.5078125 13.3046875 C-32.24006984 16.46282989 -32.24006984 16.46282989 -33.5078125 20.3046875 C-24.5978125 20.3046875 -15.6878125 20.3046875 -6.5078125 20.3046875 C-9.12300843 14.58441358 -9.12300843 14.58441358 -13.5078125 11.3046875 C-19.45459711 9.32242596 -24.28700336 9.82414807 -29.5078125 13.3046875 Z " fill="#DA0025" transform="translate(325.5078125,23.6953125)"/>
<path d="M0 0 C6.27 0 12.54 0 19 0 C19.33 12.54 19.66 25.08 20 38 C27.21638266 28.65508237 27.21638266 28.65508237 34 19 C36.56542969 18.31884766 36.56542969 18.31884766 39.421875 18.4140625 C40.44667969 18.43339844 41.47148437 18.45273437 42.52734375 18.47265625 C43.59082031 18.52292969 44.65429688 18.57320312 45.75 18.625 C46.82894531 18.65207031 47.90789062 18.67914062 49.01953125 18.70703125 C51.68171065 18.77770858 54.33984236 18.87631599 57 19 C54.56483653 23.44354571 51.51370278 27.03272411 48.1875 30.8125 C47.11456381 32.0561527 46.04293758 33.30093681 44.97265625 34.546875 C43.25712193 36.54175774 41.53683233 38.53169337 39.80859375 40.515625 C39.25300781 41.19109375 38.69742188 41.8665625 38.125 42.5625 C37.65320313 43.12066406 37.18140625 43.67882813 36.6953125 44.25390625 C35.79035461 46.04428103 35.79035461 46.04428103 36.5078125 48.19921875 C38.5999968 52.126172 41.14088911 55.65199019 43.75 59.25 C44.83412759 60.76505697 45.91746868 62.28067706 47 63.796875 C47.51820313 64.52068359 48.03640625 65.24449219 48.5703125 65.99023438 C56 76.43442623 56 76.43442623 56 78 C37.37782067 80.54094286 37.37782067 80.54094286 32.04101562 76.52636719 C28.91567654 72.83016358 26.82824242 68.62085021 25.02294922 64.14990234 C23.65185602 61.26831601 21.77013136 58.65519704 20 56 C19.67 63.26 19.34 70.52 19 78 C12.73 78 6.46 78 0 78 C0 52.26 0 26.52 0 0 Z " fill="#D90025" transform="translate(384,4)"/>
<path d="M0 0 C9.28175371 7.92816462 15.3117687 17.25245567 16.28515625 29.58203125 C16.5679109 39.19568921 14.33774012 46.21123851 10.0625 54.76171875 C3.1325 54.76171875 -3.7975 54.76171875 -10.9375 54.76171875 C-8.9375 50.76171875 -8.9375 50.76171875 -6.4375 47.69921875 C-2.72491709 42.5544822 -1.7410743 36.63954227 -2.05859375 30.37109375 C-3.21478297 23.55315319 -6.56821145 17.46745716 -11.98046875 13.12109375 C-18.0108596 9.40679992 -24.3090336 7.89814237 -31.32421875 9.20703125 C-38.4260296 11.30501951 -43.8824247 14.58249676 -47.8125 20.94921875 C-51.12510995 27.57443866 -51.68857423 33.78179965 -49.875 40.94921875 C-48.42669505 45.24675915 -46.31432664 48.17836137 -43.14453125 51.38671875 C-41.9375 52.76171875 -41.9375 52.76171875 -41.9375 54.76171875 C-45.16543797 54.99500961 -48.39121232 55.13639549 -51.625 55.26171875 C-52.53701172 55.32875 -53.44902344 55.39578125 -54.38867188 55.46484375 C-57.11560525 55.54417272 -59.30941465 55.50778127 -61.9375 54.76171875 C-67.74869708 48.97618 -69.04460523 40.94686815 -69.3125 33.07421875 C-69.08693441 19.80814258 -64.13033715 10.62246206 -54.8125 1.57421875 C-39.52575888 -11.58792445 -16.133874 -11.77416908 0 0 Z " fill="#DA0025" transform="translate(138.9375,27.23828125)"/>
<path d="M0 0 C14.52 0 29.04 0 44 0 C44 18.36452578 44 18.36452578 39.1875 23.1875 C38.45503052 24.01531982 38.45503052 24.01531982 37.70776367 24.85986328 C36.68744076 26.00978465 35.65147653 27.14601161 34.60058594 28.26806641 C32.45283266 30.59206911 30.43821448 33.01672826 28.41845703 35.4519043 C26.30149494 37.98691652 24.14707027 40.49043734 22 43 C29.92 43.33 37.84 43.66 46 44 C46 48.95 46 53.9 46 59 C30.49 59 14.98 59 -1 59 C-1 42.927173 -1 42.927173 3.75 38 C4.47860229 37.16251221 4.47860229 37.16251221 5.22192383 36.30810547 C6.251174 35.13008559 7.29491571 33.96458552 8.35205078 32.81152344 C10.60978795 30.32968495 12.76414142 27.76539007 14.92553711 25.19970703 C17.26230684 22.44816634 19.63469877 19.72705318 22 17 C14.74 16.67 7.48 16.34 0 16 C0 10.72 0 5.44 0 0 Z " fill="#D90025" transform="translate(448,23)"/>
<path d="M0 0 C9.57 0 19.14 0 29 0 C26.79605665 6.61183005 26.22018912 7.27129348 21 11 C16.29477445 12.56840852 12.47351184 12.54895539 7.8125 10.8125 C3.25013972 7.87231227 1.31519569 5.26078277 0 0 Z " fill="#D90025" transform="translate(98,64)"/>
<path d="M0 0 C2.4375 1.6875 2.4375 1.6875 4 4 C4.64524143 7.79079343 4.30281734 9.47589307 2.375 12.8125 C-0.5319778 15.48997956 -2.06440609 16 -6 16 C-10.56521739 13.86956522 -10.56521739 13.86956522 -12 11 C-12.69109948 3.85863874 -12.69109948 3.85863874 -9.9375 0.4375 C-6.07364271 -1.45332378 -4.09918272 -1.19248952 0 0 Z " fill="#DA0025" transform="translate(366,47)"/>
</svg>
