<?xml version="1.0" encoding="UTF-8"?>
<svg version="1.1" xmlns="http://www.w3.org/2000/svg" width="1226" height="371">
<path d="M0 0 C0.69803242 0.0030972 1.39606484 0.00619441 2.11524975 0.00938547 C2.85578189 0.00485435 3.59631404 0.00032324 4.35928655 -0.00434518 C6.85410409 -0.01705941 9.34870529 -0.01536426 11.84355175 -0.01371634 C13.62731216 -0.01969765 15.41106997 -0.02650227 17.19482434 -0.03407156 C22.05280847 -0.0517899 26.91072221 -0.05642969 31.76873553 -0.05770314 C35.82625338 -0.05960038 39.88375477 -0.0669568 43.9412663 -0.07404733 C53.52279828 -0.09035479 63.10429266 -0.09521454 72.68583691 -0.09379447 C82.55481047 -0.09259577 92.42356435 -0.11363761 102.29248238 -0.14528179 C110.77078216 -0.17149396 119.24901051 -0.18215953 127.72735047 -0.18088365 C132.78818486 -0.180375 137.84882459 -0.18600265 142.9096185 -0.20723975 C147.67851152 -0.22670262 152.44702606 -0.22669183 157.21593297 -0.21220648 C158.95891196 -0.21012649 160.70191511 -0.21477061 162.44485295 -0.2269274 C177.35587837 -0.32412286 189.01047122 1.65959425 200.13310254 12.31196725 C208.54149072 21.07585714 211.14438544 30.22334559 211.00810254 42.276811 C209.91169588 53.27461316 204.18945338 62.03806779 196.00810254 69.276811 C188.16388869 74.14868786 181.63396613 76.43252264 172.4725343 76.40379465 C171.71028143 76.40535464 170.94802855 76.40691463 170.16267711 76.40852189 C167.60698223 76.41251249 165.05134669 76.40934978 162.49565136 76.40620553 C160.66419451 76.4075604 158.83273792 76.40934082 157.00128186 76.41151559 C152.02639684 76.4160788 147.05153254 76.41430517 142.07664716 76.41113651 C136.87742203 76.40860833 131.6781987 76.41095162 126.47897351 76.41252267 C117.75048007 76.41434254 109.02199508 76.41194233 100.29350293 76.4071821 C90.18805012 76.40173472 80.08261748 76.40350632 69.97716516 76.4090085 C61.31132146 76.41353874 52.64548385 76.41419077 43.97963935 76.41156983 C38.79909393 76.41000723 33.61855801 76.40981296 28.4380132 76.41310632 C23.57156753 76.41598392 18.70514801 76.41401143 13.83870518 76.40821207 C12.04757111 76.40688408 10.25643485 76.40727922 8.46530163 76.40947473 C6.03107747 76.41218462 3.59693849 76.40880718 1.16271985 76.40379465 C0.44464478 76.40602537 -0.27343028 76.40825609 -1.01326519 76.41055441 C-5.87774726 76.39096121 -5.87774726 76.39096121 -6.99189746 75.276811 C-7.09684869 73.01774283 -7.13047134 70.75534689 -7.13716114 68.49385202 C-7.14219905 67.43043588 -7.14219905 67.43043588 -7.14733875 66.34553659 C-7.15687563 63.99057923 -7.15879323 61.63569275 -7.15986621 59.28071725 C-7.16307691 57.65025939 -7.16644084 56.01980182 -7.16995227 54.38934457 C-7.17595041 50.96697958 -7.17779148 47.54463987 -7.1772002 44.12226999 C-7.17709854 39.72921868 -7.19075139 35.33632887 -7.20797241 30.94331586 C-7.2190717 27.57450744 -7.22112005 24.20573831 -7.22059047 20.83691347 C-7.2217737 19.21693939 -7.22621454 17.59696439 -7.23392284 15.97700822 C-7.24368113 13.71427746 -7.2408614 11.45190055 -7.23481739 9.18916452 C-7.2362424 7.89978479 -7.23766742 6.61040506 -7.23913562 5.28195322 C-6.81751146 0.15717562 -4.64872727 0.0472825 0 0 Z " fill="#EDB111" transform="translate(6.991897463798523,93.723188996315)"/>
<path d="M0 0 C0.76563086 -0.00226556 1.53126172 -0.00453111 2.32009351 -0.00686532 C4.88726963 -0.0131989 7.45439286 -0.01237638 10.02157593 -0.0115509 C11.8612627 -0.01454269 13.70094884 -0.01794527 15.54063416 -0.02172852 C20.53830943 -0.03056816 25.53596759 -0.03290654 30.53364992 -0.0335443 C34.70155944 -0.03449315 38.86946496 -0.03817096 43.03737295 -0.0417164 C52.86495438 -0.04985992 62.69252666 -0.05230063 72.52011108 -0.05158997 C82.6721383 -0.05098838 92.82411252 -0.06155659 102.97612631 -0.07733363 C111.68359968 -0.09038559 120.39105567 -0.09577489 129.09853876 -0.09513456 C134.30316492 -0.09487899 139.50774393 -0.09776284 144.71236038 -0.10831261 C149.60263182 -0.11795486 154.49281065 -0.11809958 159.38308525 -0.11079597 C161.18186388 -0.10974546 162.98064816 -0.11214043 164.77941704 -0.11815643 C167.22650931 -0.12581349 169.67327662 -0.12127384 172.12036133 -0.11352539 C172.8394145 -0.11866895 173.55846767 -0.12381252 174.29931033 -0.12911195 C179.20492517 -0.09455908 179.20492517 -0.09455908 181.43319702 2.13371277 C181.10393049 6.00098042 179.74962715 8.51090212 177.62069702 11.69621277 C170.28573432 23.71494683 168.56781418 35.99000369 171.09335327 49.72355652 C172.97458359 56.57253791 175.92542436 61.99536459 180.14022827 67.69621277 C181.43319702 70.13371277 181.43319702 70.13371277 181.25741577 72.88371277 C180.43319702 75.13371277 180.43319702 75.13371277 178.43319702 76.13371277 C176.09347099 76.23713374 173.75070495 76.27327872 171.40870667 76.28088379 C170.67704719 76.28456048 169.94538772 76.28823717 169.19155675 76.29202527 C166.72676773 76.30308479 164.26202084 76.3069099 161.79721069 76.31071472 C160.0347785 76.31697806 158.27234763 76.32362474 156.50991821 76.33062744 C150.70701014 76.35169949 144.90410172 76.36203812 139.10116577 76.37199402 C137.10234374 76.3760415 135.10352184 76.38015842 133.10470009 76.3843441 C123.70687558 76.40340884 114.30905896 76.41763275 104.91121882 76.42595607 C94.07716925 76.4357101 83.243325 76.46197618 72.40934771 76.50245696 C64.02955399 76.53268771 55.64981884 76.54743185 47.26997167 76.55073708 C42.26889497 76.55308119 37.26803726 76.56195696 32.26701927 76.58719826 C27.55313065 76.61060347 22.83960321 76.6146625 18.12567139 76.60443687 C16.40406907 76.60394429 14.68244825 76.61018214 12.96090126 76.62399292 C-1.97887231 76.73704408 -14.99911911 74.77174314 -26.49649048 64.39152527 C-33.78455804 56.85322363 -37.03765871 48.0050915 -37.19180298 37.63371277 C-36.99714139 26.21693682 -33.03957575 17.58152163 -25.10977173 9.33293152 C-17.42335135 2.68553571 -9.98129617 -0.02163061 0 0 Z " fill="#EDB110" transform="translate(65.56680297851563,-0.1337127685546875)"/>
<path d="M0 0 C1.07592911 -0.00671722 2.15185822 -0.01343445 3.26039124 -0.02035522 C6.79115501 -0.0392428 10.32172803 -0.04325371 13.85253906 -0.04541016 C16.316346 -0.05184078 18.78015217 -0.05856934 21.24395752 -0.06558228 C26.39491549 -0.07752917 31.5458065 -0.08126538 36.69677734 -0.08007812 C43.30003042 -0.07987423 49.90285653 -0.10726116 56.50600815 -0.14162254 C61.58803285 -0.1638355 66.6699535 -0.1679175 71.75202179 -0.16685867 C74.18731417 -0.16921981 76.62260919 -0.17807205 79.0578537 -0.19352341 C82.45684586 -0.21308412 85.85489949 -0.20738542 89.25390625 -0.1953125 C90.25972244 -0.20655151 91.26553864 -0.21779053 92.30183411 -0.22937012 C96.646904 -0.1900845 99.20566365 -0.09089398 103.02993774 2.1108551 C104.86816406 4.29052734 104.86816406 4.29052734 104.89404297 7.65112305 C103.83463995 11.40945738 102.49105569 14.19758578 100.45410156 17.52099609 C99.43703125 19.2196582 99.43703125 19.2196582 98.39941406 20.95263672 C97.31813122 22.72525984 96.2326056 24.49523069 95.14648438 26.26489258 C94.09313826 27.98999617 93.05464066 29.72413879 92.01660156 31.45849609 C91.0756665 32.99413208 91.0756665 32.99413208 90.11572266 34.56079102 C88.70793821 37.09189529 88.70793821 37.09189529 88.95800781 39.2746582 C90.22890625 42.08952097 91.71789674 44.7126598 93.28222656 47.37646484 C93.96782439 48.56616474 94.65269817 49.75628213 95.33691406 50.94677734 C96.41380626 52.80972224 97.49538486 54.66928668 98.58984375 56.52197266 C99.64837445 58.31927952 100.68532675 60.12769045 101.71972656 61.93896484 C102.3470166 63.0132373 102.97430664 64.08750977 103.62060547 65.19433594 C105.09568333 68.85518476 105.20832986 70.58513425 103.86816406 74.29052734 C99.29566294 78.21328901 94.35693415 77.70801114 88.65283203 77.6628418 C87.62613907 77.66649246 86.59944611 77.67014313 85.54164124 77.67390442 C82.14770962 77.68200891 78.75425582 77.66839458 75.36035156 77.65380859 C72.99488322 77.65328974 70.62941445 77.65380842 68.26394653 77.65531921 C63.30252658 77.65522948 58.34126906 77.64480165 53.37988281 77.62670898 C47.04176906 77.6040964 40.70389418 77.60346425 34.36575127 77.61022663 C29.47734482 77.61358119 24.58899209 77.60690733 19.70059586 77.5970974 C17.36517748 77.59326512 15.0297531 77.59208894 12.69433212 77.59368324 C9.4160619 77.5940572 6.13808858 77.5813393 2.85986328 77.56518555 C1.90673752 77.56766296 0.95361176 77.57014038 -0.02839661 77.57269287 C-13.52914091 77.46737561 -25.20735714 74.68179513 -35.31152344 65.31396484 C-42.16581105 57.6948211 -45.52966024 49.25326332 -45.50683594 39.04052734 C-45.50441895 37.91553833 -45.50441895 37.91553833 -45.50195312 36.76782227 C-45.25528078 25.56236837 -40.17126348 16.68170523 -32.17871094 8.96240234 C-22.76370691 1.27228455 -11.73300224 -0.01065878 0 0 Z " fill="#EDB111" transform="translate(91.1318359375,189.70947265625)"/>
<path d="M0 0 C77.69767442 0 77.69767442 0 91 13 C97.31344515 21.45300156 98.98557826 29.52823102 98 40 C96.0501155 47.99895801 91.85969408 54.42687061 85 59 C85 59.66 85 60.32 85 61 C86.79321809 62.2720228 86.79321809 62.2720228 89.0625 63.5625 C95.64808736 67.82498253 101.12021497 73.99254515 103.56640625 81.57421875 C105.34853348 91.5444981 104.93461265 101.63424458 99.55859375 110.33203125 C92.04657797 120.84188164 80.74808515 126.44569089 68.23226929 128.60296631 C62.07352202 129.35947202 55.9019597 129.24361331 49.70703125 129.1953125 C48.44032593 129.19329834 47.17362061 129.19128418 45.86853027 129.18920898 C41.18314947 129.17882602 36.4978207 129.15090411 31.8125 129.125 C21.314375 129.08375 10.81625 129.0425 0 129 C0 86.43 0 43.86 0 0 Z M22 18 C22 29.22 22 40.44 22 52 C27.6933674 52.09215882 33.38411591 52.17169619 39.07763672 52.21972656 C41.01164552 52.23976141 42.94559435 52.26699729 44.87939453 52.30175781 C47.66974743 52.35063571 50.45929501 52.37305019 53.25 52.390625 C54.10553467 52.41127014 54.96106934 52.43191528 55.8425293 52.45318604 C61.70554739 52.45534558 66.10468117 51.30719139 71 48 C75.61832315 43.14483976 76.38477803 39.06961568 76.26171875 32.56640625 C75.84397313 28.47000513 74.75910491 26.02986029 72 23 C63.24188727 15.89647391 51.94575637 17.44156054 41.375 17.6875 C39.49351928 17.71261882 37.61200619 17.73542565 35.73046875 17.75585938 C31.15218358 17.80628102 26.57845115 17.90417195 22 18 Z M22 70 C22 83.53 22 97.06 22 111 C27.97781594 111.06909291 33.95423095 111.12876033 39.93212891 111.16479492 C41.9631013 111.17982599 43.99404154 111.20025647 46.02490234 111.22631836 C48.95418259 111.26295232 51.88303144 111.27978351 54.8125 111.29296875 C55.71178223 111.30845261 56.61106445 111.32393646 57.53759766 111.33988953 C64.17601726 111.34163803 69.74866596 110.3903536 75.2421875 106.3515625 C75.78101563 105.78179687 76.31984375 105.21203125 76.875 104.625 C77.42929687 104.06039062 77.98359375 103.49578125 78.5546875 102.9140625 C82.62876182 97.51866678 82.8936843 91.51112848 82 85 C79.70401351 79.28849642 75.83787383 74.64536047 70.10890198 72.18925476 C64.32438045 70.11509382 59.26797371 69.59518682 53.15234375 69.70703125 C52.35542114 69.71005249 51.55849854 69.71307373 50.73742676 69.71618652 C47.80398318 69.73170147 44.87072645 69.77358318 41.9375 69.8125 C35.358125 69.874375 28.77875 69.93625 22 70 Z " fill="#000000" transform="translate(762,202)"/>
<path d="M0 0 C5.61 0 11.22 0 17 0 C34.37977783 38.46408881 34.37977783 38.46408881 42.68731689 57.55413818 C49.06473207 72.20615851 55.56594541 86.8027102 62.07373047 101.3972168 C69.14715291 117.26796444 69.14715291 117.26796444 72.59375 125.2109375 C73.06490234 126.2942334 73.53605469 127.3775293 74.02148438 128.49365234 C75 131 75 131 75 133 C67.08 133 59.16 133 51 133 C49.28765195 129.05038769 47.57753748 125.0999608 45.87304688 121.14697266 C45.29231849 119.80200831 44.71029255 118.45760347 44.12695312 117.11376953 C43.28956255 115.18406846 42.45683167 113.25241516 41.625 111.3203125 C40.87089844 109.57645264 40.87089844 109.57645264 40.1015625 107.79736328 C39 105 39 105 39 103 C18.87 103.33 -1.26 103.66 -22 104 C-25.96 113.24 -29.92 122.48 -34 132 C-35 133 -35 133 -37.22485352 133.11352539 C-38.18319092 133.10828857 -39.14152832 133.10305176 -40.12890625 133.09765625 C-41.68061523 133.09282227 -41.68061523 133.09282227 -43.26367188 133.08789062 C-44.35228516 133.07951172 -45.44089844 133.07113281 -46.5625 133.0625 C-48.2012207 133.05573242 -48.2012207 133.05573242 -49.87304688 133.04882812 C-52.58208495 133.03699826 -55.29101599 133.02051543 -58 133 C-57.33119384 128.16529973 -55.40280801 124.10254324 -53.38671875 119.7109375 C-53.0215062 118.90422104 -52.65629364 118.09750458 -52.28001404 117.26634216 C-51.49570834 115.53545956 -50.70903488 113.80564826 -49.92022705 112.07681274 C-48.67182633 109.34064745 -47.4295342 106.60178465 -46.18896484 103.86206055 C-44.53791383 100.21606004 -42.88506148 96.57088566 -41.23095703 92.92626953 C-38.49934149 86.90140188 -35.80422464 80.86085944 -33.125 74.8125 C-32.67833984 73.80517822 -32.23167969 72.79785645 -31.77148438 71.76000977 C-30.78220091 69.52889213 -29.79311868 67.29768525 -28.80419922 65.06640625 C-26.5623514 60.01120567 -24.31403252 54.95888328 -22.06640625 49.90625 C-21.17235315 47.89608198 -20.27831028 45.88590941 -19.38427734 43.87573242 C-18.05238735 40.88106429 -16.72040005 37.88643974 -15.38800049 34.89199829 C-10.22050319 23.27771036 -5.08189971 11.65202106 0 0 Z M8 33 C5.99160523 37.54900446 3.98356876 42.09816687 1.97583008 46.64746094 C1.29623526 48.18721539 0.61655126 49.72693048 -0.06323242 51.26660156 C-1.71606415 55.01024707 -3.36749979 58.7544948 -5.01611328 62.5 C-6.35656835 65.54476334 -7.70490823 68.58587981 -9.05810547 71.625 C-9.70416495 73.08330526 -10.35016358 74.54163747 -10.99609375 76 C-11.29927017 76.67675781 -11.60244659 77.35351562 -11.91481018 78.05078125 C-13.48086105 81.39711504 -13.48086105 81.39711504 -14 85 C0.85 85 15.7 85 31 85 C23.79021215 67.61168812 16.44510009 50.28836291 9 33 C8.67 33 8.34 33 8 33 Z " fill="#000000" transform="translate(372,29)"/>
<path d="M0 0 C0.99 0.99 0.99 0.99 2 2 C2.33 -0.97 2.66 -3.94 3 -7 C10.26 -7 17.52 -7 25 -7 C25 26 25 59 25 93 C17.74 93 10.48 93 3 93 C2.505 88.545 2.505 88.545 2 84 C0.865625 84.9075 -0.26875 85.815 -1.4375 86.75 C-11.72764181 94.45394688 -22.33036122 95.94193126 -35 95 C-48.49205938 92.3260358 -59.41874019 85.74454429 -67.6875 74.7578125 C-76.56645011 61.21741358 -78.16203808 44.86691687 -75.3046875 29.18359375 C-71.37225586 15.18876349 -63.20780352 3.95821433 -50.77734375 -3.52734375 C-34.3115 -12.25817792 -15.08960915 -10.79117467 0 0 Z M-49 23 C-54.30583258 29.58210041 -55.30657712 37.80003464 -54.875 46 C-53.92969973 54.55166991 -51.19661105 61.94422102 -45 68 C-36.98020182 74.07406655 -28.96349194 75.85843645 -19 75 C-11.37006445 73.74081129 -6.09909051 69.68272135 -1 64 C4.63725066 56.05370598 5.59094764 46.41061167 4.53515625 36.95703125 C3.14005871 29.24835363 0.12002549 22.09569919 -6 17 C-21.64987827 7.46645074 -36.50419095 9.38277219 -49 23 Z " fill="#000000" transform="translate(963,238)"/>
<path d="M0 0 C1.37080525 1.2947774 2.7169291 2.61823134 4 4 C4.33 0.7 4.66 -2.6 5 -6 C11.93 -6 18.86 -6 26 -6 C26 27 26 60 26 94 C19.07 94 12.14 94 5 94 C4.67 90.7 4.34 87.4 4 84 C3.01 84.9075 2.02 85.815 1 86.75 C-7.7774365 94.20818251 -17.74910759 96.50716048 -29.14453125 96.25 C-42.35266861 95.09361041 -54.02282044 89.79480373 -63 80 C-73.40998762 66.44232838 -76.30126248 51.73912848 -75 35 C-73.69270108 26.10399027 -70.2049987 18.27130472 -65 11 C-64.54882812 10.36578125 -64.09765625 9.7315625 -63.6328125 9.078125 C-48.25831996 -10.55258298 -20.14901195 -13.26344409 0 0 Z M-48 24 C-53.67770697 32.65103246 -53.84868114 42.0054757 -53 52 C-51.27750756 60.13514503 -46.55661614 66.85804513 -39.72265625 71.5703125 C-31.50189777 76.35777584 -23.2414235 77.24208719 -14 75 C-6.85172874 72.62837729 -1.11365362 67.64367116 2.4375 61 C7.03942776 50.19912845 7.12807202 40.28470096 3.390625 29.125 C0.17649907 21.90224509 -4.94885422 16.8658006 -12.140625 13.65625 C-26.30254287 8.65792605 -38.282799 13.18174925 -48 24 Z " fill="#000000" transform="translate(794,68)"/>
<path d="M0 0 C1.37080525 1.2947774 2.7169291 2.61823134 4 4 C4.33 0.7 4.66 -2.6 5 -6 C11.93 -6 18.86 -6 26 -6 C26 27 26 60 26 94 C19.07 94 12.14 94 5 94 C4.67 90.7 4.34 87.4 4 84 C3.01 84.9075 2.02 85.815 1 86.75 C-7.7774365 94.20818251 -17.74910759 96.50716048 -29.14453125 96.25 C-42.35266861 95.09361041 -54.02282044 89.79480373 -63 80 C-73.40998762 66.44232838 -76.30126248 51.73912848 -75 35 C-73.69270108 26.10399027 -70.2049987 18.27130472 -65 11 C-64.54882812 10.36578125 -64.09765625 9.7315625 -63.6328125 9.078125 C-48.25831996 -10.55258298 -20.14901195 -13.26344409 0 0 Z M-48 24 C-53.67770697 32.65103246 -53.84868114 42.0054757 -53 52 C-51.27750756 60.13514503 -46.55661614 66.85804513 -39.72265625 71.5703125 C-31.50189777 76.35777584 -23.2414235 77.24208719 -14 75 C-7.04405168 72.70302018 -1.45963468 67.73176486 2.4375 61.5625 C7.1903104 50.72609228 7.13274997 40.29866893 3.390625 29.125 C0.17649907 21.90224509 -4.94885422 16.8658006 -12.140625 13.65625 C-26.30254287 8.65792605 -38.282799 13.18174925 -48 24 Z " fill="#000000" transform="translate(591,68)"/>
<path d="M0 0 C21.18603691 -0.53020322 42.03728062 5.2965619 57.74609375 20.15625 C57.74609375 22.15625 57.74609375 22.15625 56.27734375 23.671875 C51.56676435 27.6939851 46.75885918 31.51666233 41.74609375 35.15625 C41.29621094 34.70894531 40.84632813 34.26164062 40.3828125 33.80078125 C28.44641585 22.58200364 14.70282353 20.53831788 -1.0390625 20.84765625 C-14.15523233 21.41607864 -25.565694 26.93646374 -34.62890625 36.40625 C-43.9712319 47.66298665 -46.27387978 60.90849476 -45.25390625 75.15625 C-43.22341232 87.30748712 -37.6070585 98.6079624 -27.67578125 106.1015625 C-22.14341787 109.79495593 -16.72419668 112.56919763 -10.25390625 114.15625 C-9.53074219 114.33929688 -8.80757813 114.52234375 -8.0625 114.7109375 C7.00118951 117.0993389 22.66701291 115.26032763 35.74609375 107.15625 C38.22989848 105.26552611 40.46095098 103.29236172 42.74609375 101.15625 C46.87026438 102.8179304 49.81163414 105.77963018 52.99609375 108.78125 C53.55039062 109.296875 54.1046875 109.8125 54.67578125 110.34375 C56.03636495 111.61050035 57.39175212 112.88282815 58.74609375 114.15625 C50.40473725 125.93228271 34.64096157 132.2453099 20.8828125 134.90234375 C-1.1948647 138.11969369 -22.59470006 135.07813794 -41.25390625 122.15625 C-55.19116144 111.02223877 -65.11407539 97.03433152 -68.25390625 79.15625 C-69.69239008 57.75989281 -66.16936863 39.29292698 -51.76171875 22.6875 C-37.90498783 8.70126692 -19.55294285 0.93891682 0 0 Z " fill="#000000" transform="translate(382.25390625,196.84375)"/>
<path d="M0 0 C6.93 0 13.86 0 21 0 C21.33 28.71 21.66 57.42 22 87 C34.11261382 73.90359458 34.11261382 73.90359458 46.07592773 60.671875 C59.02594718 46.84480886 59.02594718 46.84480886 68.92626953 45.75 C75.02012932 45.55396089 80.98569924 46.02248521 87 47 C85.52877384 50.40353022 83.63057487 52.61255749 81.00927734 55.21777344 C80.18857758 56.03832214 79.36787781 56.85887085 78.52230835 57.70428467 C77.63580597 58.58046448 76.74930359 59.45664429 75.8359375 60.359375 C74.92872955 61.26375305 74.02152161 62.1681311 73.08682251 63.09991455 C70.68115581 65.49796458 68.26954264 67.88994618 65.85662842 70.28070068 C63.39297656 72.72385171 60.93501423 75.17271206 58.4765625 77.62109375 C53.65626427 82.41933788 48.83030157 87.21182732 44 92 C45.63650346 96.44965445 47.56631388 98.90708093 50.98046875 102.23828125 C51.47154617 102.72274216 51.9626236 103.20720306 52.46858215 103.7063446 C54.03456927 105.24904417 55.61034459 106.78122723 57.1875 108.3125 C59.2473516 110.32551492 61.30278907 112.34295474 63.35546875 114.36328125 C63.85323318 114.85231934 64.35099762 115.34135742 64.86384583 115.84521484 C68.21981658 119.16492358 71.36069193 122.60531434 74.41967773 126.19702148 C77.63825716 129.86907603 81.20717824 133.20721999 84.72070312 136.59375 C86.18281122 138.02698953 87.59617692 139.50962542 89 141 C89 141.66 89 142.32 89 143 C84.68867902 143.26362734 80.37944768 143.42194822 76.0625 143.5625 C74.24395508 143.67561523 74.24395508 143.67561523 72.38867188 143.79101562 C63.46320899 144.00870984 63.46320899 144.00870984 59.22705078 141.08837891 C56.95488516 138.82914169 54.95958829 136.53205828 53 134 C51.92165389 132.7456951 50.8392579 131.49484069 49.75 130.25 C48.92242188 129.28320312 48.92242188 129.28320312 48.078125 128.296875 C44.78549181 124.65764885 41.26770928 121.24765301 37.77856445 117.7980957 C34.17728199 114.22192022 30.73056039 110.57300163 27.46484375 106.68359375 C25.73969382 104.70082143 23.85843057 102.85843057 22 101 C21.67 114.86 21.34 128.72 21 143 C14.07 143 7.14 143 0 143 C0 95.81 0 48.62 0 0 Z " fill="#000000" transform="translate(1137,188)"/>
<path d="M0 0 C9.65147692 7.05805285 16.04064809 16.74730931 18.421875 28.4921875 C18.50946559 30.7228856 18.53953449 32.95606328 18.53540039 35.18847656 C18.53554642 35.85230347 18.53569244 36.51613037 18.5358429 37.20007324 C18.53514832 39.38602 18.52737731 41.57188069 18.51953125 43.7578125 C18.51766545 45.27667189 18.51624231 46.79553188 18.51524353 48.31439209 C18.5114311 52.30596589 18.5016117 56.29750312 18.49053955 60.2890625 C18.48029803 64.3645783 18.47574004 68.44010003 18.47070312 72.515625 C18.45998827 80.50783112 18.4424018 88.50000055 18.421875 96.4921875 C11.491875 96.4921875 4.561875 96.4921875 -2.578125 96.4921875 C-2.59270752 94.69668457 -2.60729004 92.90118164 -2.62231445 91.05126953 C-2.67419667 85.08403148 -2.73954296 79.11706472 -2.81383991 73.1500721 C-2.85835317 69.53626916 -2.89764957 65.92257403 -2.92456055 62.30859375 C-2.95078578 58.81352287 -2.99131923 55.31887117 -3.04131126 51.82406235 C-3.06583869 49.85799458 -3.07597472 47.89176398 -3.08576965 45.92556763 C-3.22699801 37.21740793 -4.0394368 29.64640455 -8.640625 22.1171875 C-14.48874347 16.89120929 -21.31128644 14.74918307 -29.125 15.10546875 C-35.87453452 16.16948773 -41.26801345 19.16793205 -45.578125 24.4921875 C-48.90679095 30.19847199 -49.68878047 35.12741504 -49.78344727 41.65942383 C-49.80339249 42.88031204 -49.82333771 44.10120026 -49.84388733 45.35908508 C-49.86059982 46.66757919 -49.87731232 47.9760733 -49.89453125 49.32421875 C-49.9151208 50.68471378 -49.93611778 52.04520269 -49.95750427 53.40568542 C-50.01251847 56.97467073 -50.06201817 60.54371177 -50.11035156 64.11279297 C-50.16071806 67.75949016 -50.2163248 71.40610709 -50.27148438 75.05273438 C-50.37881306 82.19915037 -50.47982877 89.34564073 -50.578125 96.4921875 C-57.508125 96.4921875 -64.438125 96.4921875 -71.578125 96.4921875 C-71.578125 63.4921875 -71.578125 30.4921875 -71.578125 -3.5078125 C-64.648125 -3.5078125 -57.718125 -3.5078125 -50.578125 -3.5078125 C-50.248125 -0.5378125 -49.918125 2.4321875 -49.578125 5.4921875 C-48.464375 4.5846875 -47.350625 3.6771875 -46.203125 2.7421875 C-32.68725123 -7.41272298 -14.67780121 -8.5842898 0 0 Z " fill="#000000" transform="translate(1089.578125,234.5078125)"/>
<path d="M0 0 C7.59 0 15.18 0 23 0 C28.33521915 11.22089741 32.99730868 22.66130602 37.625 34.1875 C38.38251775 36.06717611 39.14032851 37.94673415 39.8984375 39.82617188 C43.27907161 48.21207711 46.64415616 56.60414528 50 65 C56.38389287 51.72486707 62.11349801 38.17869731 67.875 24.625 C69.76548369 20.17851165 71.6591292 15.73338947 73.5546875 11.2890625 C74.20303055 9.75966537 74.20303055 9.75966537 74.86447144 8.19937134 C75.26223785 7.2668454 75.66000427 6.33431946 76.06982422 5.37353516 C76.41955292 4.5505191 76.76928162 3.72750305 77.12960815 2.87954712 C78 1 78 1 79 0 C80.70772358 -0.08713831 82.41898649 -0.10700007 84.12890625 -0.09765625 C85.68061523 -0.09282227 85.68061523 -0.09282227 87.26367188 -0.08789062 C88.35228516 -0.07951172 89.44089844 -0.07113281 90.5625 -0.0625 C92.2012207 -0.05573242 92.2012207 -0.05573242 93.87304688 -0.04882812 C96.58208495 -0.03699826 99.29101599 -0.02051543 102 0 C100.64426385 4.31879673 98.99340257 8.33893734 97.05078125 12.42578125 C96.76172913 13.03724503 96.472677 13.6487088 96.17486572 14.27870178 C95.55046901 15.59934119 94.92468092 16.91932349 94.29763794 18.2387085 C92.59114896 21.8309997 90.89662876 25.42891643 89.203125 29.02734375 C88.85274673 29.77167664 88.50236847 30.51600952 88.14137268 31.28289795 C84.54158512 38.94713876 81.04782364 46.65821686 77.5625 54.375 C72.15544919 66.33843071 66.62046785 78.23550577 61.00512695 90.10247803 C53.91737192 105.08825411 47.05341438 120.17258911 40.23657227 135.28320312 C39.51572424 136.866934 38.77818062 138.44363877 38 140 C30.08 140 22.16 140 14 140 C18.05580766 130.76954118 22.12516071 121.60699062 26.75 112.6484375 C27.06987885 112.02521606 27.38975769 111.40199463 27.71932983 110.7598877 C29.31508718 107.65305016 30.92683084 104.55639416 32.56494141 101.47167969 C33.15452637 100.32860352 33.74411133 99.18552734 34.3515625 98.0078125 C34.88604004 96.99348145 35.42051758 95.97915039 35.97119141 94.93408203 C37.76601808 89.81537605 35.9547572 85.43449756 33.8737793 80.62255859 C33.43208908 79.59222504 32.99039886 78.56189148 32.5353241 77.50033569 C32.05315933 76.39420929 31.57099457 75.28808289 31.07421875 74.1484375 C30.5713887 72.98035553 30.06855865 71.81227356 29.55049133 70.60879517 C28.20795154 67.49018256 26.85752457 64.37504771 25.50531006 61.26062012 C24.17807742 58.20042719 22.85789798 55.13719728 21.53710938 52.07421875 C19.43455093 47.20073027 17.33032791 42.32796757 15.22412109 37.45605469 C14.96223936 36.85020412 14.70035763 36.24435356 14.43054008 35.62014389 C13.04540359 32.41613545 11.65903894 29.21266462 10.27105713 26.0098877 C8.84994154 22.73005825 7.43249399 19.44866461 6.01743507 16.1662178 C5.22134648 14.32222117 4.42146028 12.47986554 3.62150574 10.63754272 C3.14546402 9.53206085 2.6694223 8.42657898 2.17895508 7.28759766 C1.75697342 6.31198883 1.33499176 5.33638 0.90022278 4.33120728 C0 2 0 2 0 0 Z " fill="#000000" transform="translate(588,231)"/>
<path d="M0 0 C6.93 0 13.86 0 21 0 C21.01458252 1.86132568 21.02916504 3.72265137 21.04418945 5.64038086 C21.09602455 11.81915972 21.16135896 17.99768309 21.23571491 24.17623043 C21.28027058 27.91897834 21.31955825 31.6616211 21.34643555 35.40454102 C21.37261767 39.02279425 21.41312244 42.6406396 21.46318626 46.25863838 C21.47975501 47.63273573 21.49133108 49.00690347 21.49761391 50.38108635 C21.52987675 63.49145842 21.52987675 63.49145842 27.3125 74.875 C32.40915591 78.90491398 36.49042615 80.41782614 43 80.375 C44.175625 80.38273437 45.35125 80.39046875 46.5625 80.3984375 C51.76089128 79.79589669 54.97181307 78.00427561 58.6875 74.375 C64.70343588 66.4408135 64.46509671 57.11456948 64.51171875 47.55859375 C64.52859612 46.18138562 64.54675039 44.8041926 64.56611633 43.42701721 C64.61329146 39.83178433 64.64330939 36.23661275 64.66955566 32.64117432 C64.69952685 28.96052956 64.7459995 25.28009543 64.79101562 21.59960938 C64.87667836 14.39982695 64.94265792 7.20007388 65 0 C71.93 0 78.86 0 86 0 C86.06814884 8.13732076 86.12302899 16.27441452 86.15543652 24.41194534 C86.17100124 28.19173146 86.19206809 31.97130991 86.22631836 35.75097656 C86.25924421 39.40794628 86.27692187 43.06471798 86.28463173 46.72182465 C86.29011635 48.1074815 86.30082379 49.49312921 86.31719017 50.87870026 C86.49290922 66.39141008 83.93924582 79.40576052 73.203125 90.95703125 C64.9421116 98.61750999 54.15986955 101.57164313 43.125 101.4375 C41.809552 101.42614014 41.809552 101.42614014 40.4675293 101.41455078 C28.09602797 101.10053583 17.85320988 96.3119551 9.25 87.375 C2.35696024 79.03923099 -0.13416989 68.96332242 -0.11352539 58.35205078 C-0.11344986 57.05115509 -0.11337433 55.7502594 -0.11329651 54.40994263 C-0.10819101 53.00506552 -0.10297504 51.60018881 -0.09765625 50.1953125 C-0.09578923 48.74657236 -0.09436667 47.29783158 -0.09336853 45.84909058 C-0.08956573 42.05153637 -0.07975474 38.25402092 -0.06866455 34.45648193 C-0.05840215 30.57515995 -0.05386059 26.69383166 -0.04882812 22.8125 C-0.0381303 15.20831369 -0.0205518 7.60416723 0 0 Z " fill="#000000" transform="translate(848,62)"/>
<path d="M0 0 C0.83265381 0.00523682 1.66530762 0.01047363 2.52319336 0.01586914 C3.33280518 0.0183667 4.14241699 0.02086426 4.9765625 0.0234375 C6.01159912 0.0325415 7.04663574 0.04164551 8.11303711 0.05102539 C11.39241211 0.07165039 14.67178711 0.09227539 18.05053711 0.11352539 C18.05053711 7.70352539 18.05053711 15.29352539 18.05053711 23.11352539 C25.97053711 23.11352539 33.89053711 23.11352539 42.05053711 23.11352539 C42.05053711 29.38352539 42.05053711 35.65352539 42.05053711 42.11352539 C34.13053711 42.11352539 26.21053711 42.11352539 18.05053711 42.11352539 C18.14799176 47.62740709 18.25104102 53.14062604 18.36791992 58.65405273 C18.40596617 60.52573493 18.44085933 62.39748419 18.47241211 64.26928711 C18.5185968 66.97542131 18.57649688 69.68110327 18.63647461 72.38696289 C18.64802582 73.21030121 18.65957703 74.03363953 18.67147827 74.88192749 C18.90068703 84.11126863 19.69302057 92.77052787 26.49194336 99.55102539 C33.2326004 104.85910432 41.88753535 103.92220504 50.05053711 104.11352539 C50.05053711 110.71352539 50.05053711 117.31352539 50.05053711 124.11352539 C34.24661843 124.447411 22.91592065 124.295332 10.05053711 114.11352539 C-2.55294827 101.32332171 -3.2142692 85.85208077 -3.12524414 68.86157227 C-3.1085395 66.88305475 -3.09160969 64.90453912 -3.07446289 62.92602539 C-3.06441465 60.90454544 -3.05529205 58.88306067 -3.04711914 56.86157227 C-3.02524803 51.94543603 -2.99081934 47.02953474 -2.94946289 42.11352539 C-8.88946289 42.11352539 -14.82946289 42.11352539 -20.94946289 42.11352539 C-20.94946289 35.84352539 -20.94946289 29.57352539 -20.94946289 23.11352539 C-15.00946289 23.11352539 -9.06946289 23.11352539 -2.94946289 23.11352539 C-2.96106445 21.53700195 -2.97266602 19.96047852 -2.98461914 18.33618164 C-2.99399532 16.2827974 -3.00309571 14.22941189 -3.01196289 12.17602539 C-3.0203418 11.13510742 -3.0287207 10.09418945 -3.03735352 9.02172852 C-3.0421875 7.53769531 -3.0421875 7.53769531 -3.04711914 6.02368164 C-3.05497437 4.64901733 -3.05497437 4.64901733 -3.06298828 3.24658203 C-2.91582021 0.48140472 -2.7660714 0.16107992 0 0 Z " fill="#000000" transform="translate(655.949462890625,38.886474609375)"/>
<path d="M0 0 C6.93 0 13.86 0 21 0 C21 7.26 21 14.52 21 22 C28.59 22 36.18 22 44 22 C44 28.27 44 34.54 44 41 C36.41 41 28.82 41 21 41 C21.05124821 47.22665809 21.11446746 53.45090297 21.20751953 59.67675781 C21.23560097 61.79093501 21.25687876 63.90521469 21.27099609 66.01953125 C21.29260398 69.07344551 21.33934483 72.12614405 21.390625 75.1796875 C21.39185364 76.11239471 21.39308228 77.04510193 21.39434814 78.006073 C21.55870466 85.50914107 23.05562313 92.71912291 28.1875 98.4375 C36.16262357 102.86812421 42.92278066 103.31300756 52 103 C52 109.6 52 116.2 52 123 C41.03300594 125.19339881 29.48107791 123.89456882 19.625 118.3125 C9.49068816 111.5396512 3.33145103 103.28548191 0.42312622 91.38427734 C-0.38104124 86.85286764 -0.24227042 82.30715707 -0.1953125 77.71875 C-0.1924826 76.66465942 -0.18965271 75.61056885 -0.18673706 74.52453613 C-0.17560986 71.1829049 -0.15051904 67.84154919 -0.125 64.5 C-0.11496056 62.22396222 -0.1058364 59.94792022 -0.09765625 57.671875 C-0.07569495 52.1144784 -0.04121675 46.55728579 0 41 C-6.27 41 -12.54 41 -19 41 C-19 34.73 -19 28.46 -19 22 C-12.73 22 -6.46 22 0 22 C0 14.74 0 7.48 0 0 Z " fill="#000000" transform="translate(528,209)"/>
<path d="M0 0 C0.72291733 -0.00524185 1.44583466 -0.0104837 2.19065857 -0.0158844 C3.7212496 -0.02229889 5.25188996 -0.02097495 6.7824707 -0.01245117 C9.08963649 -0.00402119 11.3942557 -0.03257394 13.70117188 -0.06445312 C26.65356065 -0.12732667 36.90211827 2.19204495 46.55859375 11.43359375 C54.01474865 19.58876317 57.90323334 29.02663095 57.703125 40.05078125 C57.07008278 50.4874232 52.8857509 59.71433978 45.18359375 66.87109375 C38.88067375 72.02322936 32.83079599 75.43359375 24.55859375 75.43359375 C19.38202049 72.71913241 16.84866838 69.31580762 14.12109375 64.30859375 C13.26181498 62.79161215 12.40243287 61.27468909 11.54296875 59.7578125 C11.07439453 58.91911621 10.60582031 58.08041992 10.12304688 57.21630859 C7.7342541 52.96732919 5.28685813 48.75259782 2.84545898 44.53369141 C0.34836238 40.21757711 -2.13832748 35.89551515 -4.62304688 31.57226562 C-5.87550332 29.41039934 -7.14059963 27.25582291 -8.41601562 25.10742188 C-9.04701172 24.04330078 -9.67800781 22.97917969 -10.328125 21.8828125 C-10.89877686 20.92850342 -11.46942871 19.97419434 -12.05737305 18.9909668 C-13.93705992 15.51774048 -14.59942595 13.38408635 -14.44140625 9.43359375 C-11.64262165 1.77376221 -7.83681964 -0.03341206 0 0 Z " fill="#EDB111" transform="translate(86.44140625,285.56640625)"/>
<path d="M0 0 C6.93 0 13.86 0 21 0 C21 46.2 21 92.4 21 140 C14.07 140 7.14 140 0 140 C0 93.8 0 47.6 0 0 Z " fill="#000000" transform="translate(470,22)"/>
<path d="M0 0 C6.93 0 13.86 0 21 0 C21 33 21 66 21 100 C14.07 100 7.14 100 0 100 C0 67 0 34 0 0 Z " fill="#000000" transform="translate(465,231)"/>
<path d="M0 0 C3.92465988 2.1132784 6.63811003 4.22914397 9 8 C9.90955744 12.96569198 9.50377381 16.99245239 7.25 21.5 C4.5585655 24.49048278 2.61281165 25.74716649 -1.3671875 26.37109375 C-5.6567024 26.48467904 -8.99339989 26.56109023 -12.5 23.875 C-16.11970671 19.71233728 -17.10215966 16.94103348 -16.8125 11.4375 C-15.65673042 6.54770561 -14.49546558 3.98564777 -10.25 1.1875 C-6.47131569 -0.19317311 -3.99560775 -0.49945097 0 0 Z " fill="#000000" transform="translate(479,188)"/>
<path d="M0 0 C0.66 0.66 1.32 1.32 2 2 C1.625 4.625 1.625 4.625 1 7 C-0.32 6.67 -1.64 6.34 -3 6 C-3 5.34 -3 4.68 -3 4 C-2.34 4 -1.68 4 -1 4 C-0.67 2.68 -0.34 1.36 0 0 Z " fill="#E3B41A" transform="translate(245,68)"/>
<path d="M0 0 C0.66 0 1.32 0 2 0 C2 1.98 2 3.96 2 6 C0.68 6.33 -0.64 6.66 -2 7 C-2 6.01 -2 5.02 -2 4 C-1.34 4 -0.68 4 0 4 C0 2.68 0 1.36 0 0 Z " fill="#E3B514" transform="translate(122,352)"/>
</svg>
