<?xml version="1.0" encoding="UTF-8"?>
<!DOCTYPE svg PUBLIC "-//W3C//DTD SVG 1.1//EN" "http://www.w3.org/Graphics/SVG/1.1/DTD/svg11.dtd">
<svg xmlns="http://www.w3.org/2000/svg" xml:space="preserve" width="251.849mm" height="121.489mm" version="1.1" style="shape-rendering:geometricPrecision; text-rendering:geometricPrecision; image-rendering:optimizeQuality; fill-rule:evenodd; clip-rule:evenodd"
viewBox="0 0 8139 3926"
 xmlns:xlink="http://www.w3.org/1999/xlink">
 <defs>
  <style type="text/css">
   <![CDATA[
    .fil1 {fill:#323031}
    .fil0 {fill:#56E2E3;fill-rule:nonzero}
   ]]>
  </style>
 </defs>
 <g id="Слой_x0020_1">
  <metadata id="CorelCorpID_0Corel-Layer"/>
  <g id="_913328368">
   <polygon class="fil0" points="4800,0 0,3926 3339,3926 8139,0 "/>
   <path class="fil1" d="M4915 1714l0 1253 294 0 0 -551 750 551 468 0 -931 -663 829 -590 -422 0 -694 523 0 -523 -294 0zm423 -1234l0 976 164 0 0 -438 652 438 273 0 -786 -508 708 -468 -238 0 -609 418 0 -418 -164 0zm-3516 976l729 0c91,0 159,-15 203,-47 45,-31 67,-79 67,-144l0 -125c0,-56 -14,-100 -43,-132 -28,-32 -70,-52 -125,-59 56,-7 97,-23 123,-49 27,-26 40,-65 40,-117l0 -114c0,-66 -16,-114 -49,-144 -32,-30 -85,-45 -158,-45l-787 0 0 976zm163 -134l0 -314 564 0c41,0 69,9 84,26 16,17 24,47 24,92l0 81c0,44 -8,74 -23,90 -15,17 -44,25 -85,25l-564 0zm564 -441l-564 0 0 -270 564 0c39,0 65,6 79,19 14,12 20,34 20,66l0 98c0,32 -7,55 -21,67 -15,13 -41,20 -78,20zm345 833l-1072 0 0 1253 287 0 0 -473 277 0 504 473 419 0 -578 -473 163 0c100,0 172,-20 216,-58 45,-39 67,-100 67,-185l0 -294c0,-85 -22,-147 -67,-186 -44,-38 -116,-57 -216,-57zm-785 565l0 -348 656 0c51,0 85,7 104,22 18,14 27,40 27,76l0 151c0,37 -9,63 -27,78 -19,14 -53,21 -104,21l-656 0zm1245 -1799l-533 976 161 0 125 -240 660 0 125 240 179 0 -542 -976 -175 0zm347 612l-526 0 262 -500 264 500zm762 622l-1074 0 0 1253 996 0c124,0 216,-21 277,-61 61,-40 91,-102 91,-185l0 -160c0,-67 -19,-121 -58,-163 -39,-42 -95,-68 -167,-77 70,-9 123,-31 160,-67 38,-36 56,-84 56,-144l0 -153c0,-85 -22,-146 -66,-185 -44,-39 -116,-58 -215,-58zm-787 502l0 -298 665 0c51,0 86,7 105,20 19,14 29,38 29,70l0 118c0,33 -10,57 -29,70 -19,13 -54,20 -105,20l-665 0zm0 207l665 0c55,0 93,8 112,24 19,16 29,45 29,87l0 95c0,42 -10,71 -29,87 -19,17 -57,25 -112,25l-665 0 0 -318zm458 -1943l0 976 150 0 0 -756 837 756 92 0 0 -976 -150 0 0 740 -827 -740 -102 0z"/>
  </g>
 </g>
</svg>
